<?xml version="1.0" encoding="UTF-8" standalone="no"?>
<svg
   width="65.246727"
   height="61.502163"
   viewBox="0 0 65.246726 61.502163"
   version="1.1"
   id="svg22"
   sodipodi:docname="dhbw_logo.svg"
   inkscape:version="1.3.2 (091e20e, 2023-11-25, custom)"
   xml:space="preserve"
   inkscape:export-filename="dhbw_logo.png"
   inkscape:export-xdpi="96"
   inkscape:export-ydpi="96"
   xmlns:inkscape="http://www.inkscape.org/namespaces/inkscape"
   xmlns:sodipodi="http://sodipodi.sourceforge.net/DTD/sodipodi-0.dtd"
   xmlns="http://www.w3.org/2000/svg"
   xmlns:svg="http://www.w3.org/2000/svg"
   xmlns:rdf="http://www.w3.org/1999/02/22-rdf-syntax-ns#"
   xmlns:cc="http://creativecommons.org/ns#"
   xmlns:dc="http://purl.org/dc/elements/1.1/"><defs
     id="defs22" /><sodipodi:namedview
     id="namedview22"
     pagecolor="#505050"
     bordercolor="#ffffff"
     borderopacity="1"
     inkscape:showpageshadow="0"
     inkscape:pageopacity="0"
     inkscape:pagecheckerboard="1"
     inkscape:deskcolor="#505050"
     inkscape:zoom="19.887128"
     inkscape:cx="38.919647"
     inkscape:cy="46.437072"
     inkscape:window-width="2048"
     inkscape:window-height="1081"
     inkscape:window-x="-8"
     inkscape:window-y="-8"
     inkscape:window-maximized="1"
     inkscape:current-layer="Menu" /><!-- Generator: Sketch 63.1 (92452) - https://sketch.com --><title
     id="title1">Logo DHBW Stuttgart</title><desc
     id="desc1">Created with Sketch.</desc><g
     id="Menu"
     stroke="none"
     stroke-width="1"
     fill="none"
     fill-rule="evenodd"
     transform="translate(0,16)"
     style="display:inline"><g
       id="01-Menu"
       transform="translate(-155,-22)"
       style="display:inline"><g
         id="logo-dhbw-Stuttgart"
         transform="translate(155,22)"
         style="display:inline"><g
           id="Group-2"><g
             id="g8"
             transform="translate(0,-1.185811)"><path
               d="M 28.892225,0.97138753 H 1.125205 C 0.50454785,0.97138753 0,1.4771863 0,2.0972659 V 29.933127 c 0,0.624312 0.50560339,1.129053 1.125205,1.129053 H 15.012937 V 18.380176 c 0,-0.621138 0.501382,-1.630619 1.122039,-2.25599 L 28.890114,3.3374251 c 0.621713,-0.6243122 1.127323,-0.6243122 1.127323,0 V 2.0972659 c 0.0021,-0.6200796 -0.503499,-1.12587837 -1.125212,-1.12587837"
               id="path8"
               fill="#e1061c"
               fill-rule="nonzero" /><rect
               id="Rectangle"
               x="0"
               y="0.97562015"
               width="30.019541"
               height="30.083385" /></g><g
             id="g9"
             transform="translate(31.666183)"><path
               d="M 2.0941902,-0.214424 H 15.978756 v -15.318929 c 0,-0.622196 -0.50877,-0.622196 -1.128372,0 L 2.0941902,-2.744475 c -0.6217127,0.62537 -1.12414946,1.634851 -1.12414946,2.258105 v 1.397825 c 0,-0.62008 0.50349226,-1.125879 1.12414946,-1.125879"
               id="path9"
               fill="#e1061c"
               fill-rule="nonzero" /><rect
               id="rect9"
               x="0.9689852"
               y="-15.997883"
               width="15.011882"
               height="16.909338" /></g><g
             id="g11"
             opacity="0.8"
             transform="translate(31.666183,-1.185811)"><g
               id="g10"><path
                 d="M 29.862266,0.97138753 H 15.980867 V 13.489377 c 0,0.621138 -0.509825,1.633794 -1.129427,2.25599 L 2.0941902,28.535302 c -0.6217127,0.623254 -1.125205,0.623254 -1.125205,0 v 1.396767 c 0,0.624312 0.5056034,1.129053 1.125205,1.129053 H 29.862266 c 0.618546,0 1.125205,-0.505799 1.125205,-1.129053 V 2.0972659 c 0,-0.6200796 -0.506659,-1.12587837 -1.125205,-1.12587837"
                 id="path10"
                 fill="#5c6971"
                 fill-rule="nonzero" /><rect
                 id="rect10"
                 x="0.9689852"
                 y="0.97562015"
                 width="30.018486"
                 height="30.083385" /></g></g><g
             id="g12"
             transform="translate(31.666183,-1.185811)"><path
               d="M 2.0941902,28.535302 14.850384,15.745367 c 0.619602,-0.622196 1.128372,-1.634852 1.128372,-2.25599 V 0.97138753 H 2.0941902 c -0.6217127,0 -1.12414946,0.50579877 -1.12414946,1.12799467 V 28.533186 c 0,0.62537 0.50349226,0.62537 1.12414946,0.0021"
               id="path11"
               fill="#e1061c"
               fill-rule="nonzero" /><rect
               id="rect11"
               x="0.9689852"
               y="0.97562015"
               width="15.011882"
               height="28.03162" /></g><g
             id="g14"
             opacity="0.6"
             transform="translate(31.666183,-1.185811)"><g
               id="g13"><path
                 d="M 2.0941902,28.535302 14.850384,15.745367 c 0.619602,-0.622196 1.128372,-1.634852 1.128372,-2.25599 V 0.97138753 H 2.0941902 c -0.6217127,0 -1.12414946,0.50579877 -1.12414946,1.12799467 V 28.533186 c 0,0.62537 0.50349226,0.62537 1.12414946,0.0021"
                 id="path12"
                 fill="#5c6971"
                 fill-rule="nonzero" /><rect
                 id="rect12"
                 x="0.9689852"
                 y="0.97562015"
                 width="15.011882"
                 height="28.03162" /></g></g><g
             id="g16"
             opacity="0.8"
             transform="translate(14.777552,28.442567)"><g
               id="g15"><path
                 d="M 14.114673,1.4327437 H 0.23644083 V 16.588717 c 0,0.622196 0.50138123,0.622196 1.12203837,0 L 14.114673,3.7987813 C 14.736386,3.1765854 15.241989,2.1681624 15.241989,1.5417338 V 0.30686534 c 0,0.62113778 -0.505603,1.12587836 -1.127316,1.12587836"
                 id="path14"
                 fill="#5c6971"
                 fill-rule="nonzero" /><rect
                 id="rect14"
                 x="0.2353853"
                 y="0.30898166"
                 width="15.00766"
                 height="16.750614" /></g></g><g
             id="g17"
             transform="translate(14.777552,0.930502)"><path
               d="M 14.114673,1.2211124 1.3595348,14.007874 c -0.62276828,0.62537 -1.12203843,1.634851 -1.12203843,2.255989 V 28.944809 H 14.114673 c 0.621713,0 1.127316,-0.504741 1.127316,-1.127995 V 1.2211124 c 0,-0.62537037 -0.505603,-0.62431222 -1.127316,0"
               id="path16"
               fill="#e1061c"
               fill-rule="nonzero" /><rect
               id="rect16"
               x="0.2353853"
               y="0.7534073"
               width="15.00766"
               height="28.189285" /></g><g
             id="g19"
             opacity="0.6"
             transform="translate(14.777552,0.930502)"><g
               id="g18"><path
                 d="M 14.114673,1.2211124 1.3595348,14.007874 c -0.62276828,0.62537 -1.12203843,1.634851 -1.12203843,2.255989 V 28.944809 H 14.114673 c 0.621713,0 1.127316,-0.504741 1.127316,-1.127995 V 1.2211124 c 0,-0.62537037 -0.505603,-0.62431222 -1.127316,0"
                 id="path17"
                 fill="#5c6971"
                 fill-rule="nonzero" /><rect
                 id="rect17"
                 x="0.2353853"
                 y="0.7534073"
                 width="15.00766"
                 height="28.189285" /></g></g></g></g></g><g
       transform="matrix(0.62271787,0,0,0.62271787,-22.93012,-245.30194)"
       id="g2"
       style="fill:#000000;fill-opacity:1"><path
         d="M 70,442.3 V 454 c 0,5.5 12.5,11 28,11 15.5,0 28,-5.5 28,-11 v -11.7 l -28,9.9 z"
         id="path1"
         style="fill:#000000;fill-opacity:1" /><path
         d="M 98,447.9 141.6,432.6 98,417 l -43.6,15.6 5.6,2 V 453 c 0,1.1 0.9,2 2,2 1.1,0 2,-0.9 2,-2 v -17 z"
         id="path2"
         style="fill:#000000;fill-opacity:1" /></g></g><metadata
     id="metadata24"><rdf:RDF><cc:Work
         rdf:about=""><dc:title>Logo DHBW Stuttgart</dc:title></cc:Work></rdf:RDF></metadata></svg>
