<?xml version="1.0" encoding="UTF-8" standalone="no"?>
<svg
   height="20.000282"
   style="line-height:1"
   viewBox="0 0 21.999367 20.000282"
   width="21.999367"
   version="1.1"
   id="svg6"
   sodipodi:docname="huggingface.svg"
   inkscape:version="1.3.2 (091e20e, 2023-11-25, custom)"
   xmlns:inkscape="http://www.inkscape.org/namespaces/inkscape"
   xmlns:sodipodi="http://sodipodi.sourceforge.net/DTD/sodipodi-0.dtd"
   xmlns="http://www.w3.org/2000/svg"
   xmlns:svg="http://www.w3.org/2000/svg"
   xmlns:rdf="http://www.w3.org/1999/02/22-rdf-syntax-ns#"
   xmlns:cc="http://creativecommons.org/ns#"
   xmlns:dc="http://purl.org/dc/elements/1.1/">
  <defs
     id="defs6" />
  <sodipodi:namedview
     id="namedview6"
     pagecolor="#505050"
     bordercolor="#ffffff"
     borderopacity="1"
     inkscape:showpageshadow="0"
     inkscape:pageopacity="0"
     inkscape:pagecheckerboard="1"
     inkscape:deskcolor="#505050"
     inkscape:zoom="32.375"
     inkscape:cx="11.011583"
     inkscape:cy="9.992278"
     inkscape:window-width="1920"
     inkscape:window-height="991"
     inkscape:window-x="-9"
     inkscape:window-y="-9"
     inkscape:window-maximized="1"
     inkscape:current-layer="svg6" />
  <title
     id="title1">HuggingFace</title>
  <path
     d="m 1.2496832,9.5352828 c 0,-3.407 1.847,-6.554 4.844,-8.258 a 9.822,9.822 0 0 1 9.6869998,0 c 2.997,1.704 4.844,4.851 4.844,8.258 0,5.2660002 -4.337,9.5350002 -9.687,9.5350002 -5.3499998,0 -9.6879998,-4.27 -9.6879998,-9.5350002 z"
     fill="#ff9d0b"
     id="path1" />
  <path
     d="m 10.937683,18.086283 c 4.797,0 8.687,-3.829 8.687,-8.5510002 0,-4.722 -3.89,-8.54999998 -8.687,-8.54999998 -4.7979998,0 -8.6879998,3.82799998 -8.6879998,8.54999998 0,4.7220002 3.89,8.5500002 8.6879998,8.5500002 z"
     fill="#ffd21e"
     id="path2" />
  <path
     d="m 10.874683,13.113283 c 2.457,0 3.25,-2.156 3.25,-3.2630002 0,-0.576 -0.393,-0.394 -1.023,-0.089 -0.582,0.2830002 -1.365,0.6750002 -2.224,0.6750002 -1.7979998,0 -3.2499998,-1.6930002 -3.2499998,-0.5860002 0,1.1070002 0.79,3.2630002 3.2499998,3.2630002 z"
     fill="#ff323d"
     id="path3" />
  <path
     d="m 13.759683,7.2102828 c 0.32,0.108 0.445,0.753 0.767,0.585 0.447,-0.233 0.707,-0.708 0.659,-1.204 a 1.235,1.235 0 0 0 -0.879,-1.059 1.262,1.262 0 0 0 -1.33,0.394 c -0.322,0.384 -0.377,0.92 -0.14,1.36 0.153,0.283 0.638,-0.177 0.925,-0.079 z m -5.8869998,0 c -0.32,0.108 -0.448,0.753 -0.768,0.585 a 1.226,1.226 0 0 1 -0.658,-1.204 c 0.048,-0.495 0.395,-0.913 0.878,-1.059 a 1.262,1.262 0 0 1 1.33,0.394 c 0.322,0.384 0.377,0.92 0.14,1.36 -0.152,0.283 -0.64,-0.177 -0.925,-0.079 z m 1.12,5.3400002 a 2.166,2.166 0 0 1 1.3249998,-1.106 c 0.07,-0.02 0.144,0.06 0.219,0.171 l 0.192,0.306 c 0.069,0.1 0.139,0.175 0.209,0.175 0.074,0 0.15,-0.074 0.223,-0.172 l 0.205,-0.302 c 0.08,-0.11 0.157,-0.188 0.234,-0.165 0.537,0.168 0.986,0.536 1.25,1.026 0.932,-0.724 1.275,-1.905 1.275,-2.6330002 0,-0.508 -0.306,-0.426 -0.81,-0.19 l -0.616,0.296 c -0.52,0.2400002 -1.148,0.4800002 -1.824,0.4800002 -0.676,0 -1.3019998,-0.24 -1.8229998,-0.4800002 l -0.589,-0.283 c -0.52,-0.248 -0.838,-0.342 -0.838,0.177 0,0.7030002 0.32,1.8310002 1.187,2.5600002 l 0.18,0.14 z"
     fill="#3a3b45"
     id="path4" />
  <path
     d="m 16.811683,8.3662828 a 0.806,0.806 0 0 0 0.813,-0.8 c 0,-0.441 -0.364,-0.8 -0.813,-0.8 a 0.806,0.806 0 0 0 -0.812,0.8 c 0,0.442 0.364,0.8 0.812,0.8 z m -11.6239998,0 a 0.806,0.806 0 0 0 0.812,-0.8 c 0,-0.441 -0.364,-0.8 -0.812,-0.8 a 0.806,0.806 0 0 0 -0.813,0.8 c 0,0.442 0.364,0.8 0.813,0.8 z m -1.673,2.7070002 c -0.405,0 -0.765,0.162 -1.017,0.46 a 1.455,1.455 0 0 0 -0.333,0.925 1.801,1.801 0 0 0 -0.485,-0.074 c -0.387,0 -0.73700004,0.146 -0.98500004,0.409 a 1.41,1.41 0 0 0 -0.2,1.722 1.302,1.302 0 0 0 -0.447,0.694 c -0.06,0.222 -0.12,0.69 0.2,1.166 a 1.267,1.267 0 0 0 -0.093,1.236 c 0.238,0.533 0.81,0.958 1.89000004,1.405 l 0.24,0.096 c 0.768,0.3 1.473,0.492 1.478,0.494 0.89,0.243 1.808,0.375 2.732,0.394 1.465,0 2.513,-0.443 3.115,-1.314 0.9299998,-1.342 0.8419998,-2.575 -0.274,-3.763 l -0.151,-0.154 c -0.692,-0.684 -1.155,-1.69 -1.25,-1.912 -0.195,-0.655 -0.71,-1.383 -1.562,-1.383 -0.46,0.007 -0.889,0.233 -1.15,0.605 -0.25,-0.31 -0.495,-0.553 -0.715,-0.694 a 1.87,1.87 0 0 0 -0.993,-0.312 z m 14.9699998,0 c 0.405,0 0.767,0.162 1.017,0.46 0.216,0.262 0.333,0.588 0.333,0.925 0.158,-0.047 0.322,-0.071 0.487,-0.074 0.388,0 0.738,0.146 0.985,0.409 a 1.41,1.41 0 0 1 0.2,1.722 c 0.22,0.178 0.377,0.422 0.445,0.694 0.06,0.222 0.12,0.69 -0.2,1.166 0.244,0.37 0.279,0.836 0.093,1.236 -0.238,0.533 -0.81,0.958 -1.889,1.405 l -0.239,0.096 c -0.77,0.3 -1.475,0.492 -1.48,0.494 -0.89,0.243 -1.808,0.375 -2.732,0.394 -1.465,0 -2.513,-0.443 -3.115,-1.314 -0.93,-1.342 -0.842,-2.575 0.274,-3.763 l 0.151,-0.154 c 0.695,-0.684 1.157,-1.69 1.252,-1.912 0.195,-0.655 0.708,-1.383 1.56,-1.383 0.46,0.007 0.889,0.233 1.15,0.605 0.25,-0.31 0.495,-0.553 0.718,-0.694 0.244,-0.162 0.523,-0.265 0.814,-0.3 z"
     fill="#ff9d0b"
     id="path5" />
  <path
     d="m 8.7846832,18.132283 c 0.688,-0.994 0.638,-1.74 -0.305,-2.667 -0.945,-0.928 -1.495,-2.288 -1.495,-2.288 0,0 -0.205,-0.788 -0.672,-0.714 -0.468,0.074 -0.81,1.25 0.17,1.971 0.977,0.721 -0.195,1.21 -0.573,0.534 -0.375,-0.677 -1.405,-2.416 -1.94,-2.751 -0.532,-0.332 -0.907,-0.148 -0.782,0.541 0.125,0.687 2.357,2.35 2.14,2.707 -0.218,0.362 -0.983,-0.42 -0.983,-0.42 0,0 -2.392,-2.145 -2.915,-1.585 -0.52000004,0.558 0.398,1.026 1.7,1.803 1.308,0.778 1.41,0.985 1.225,1.28 -0.187,0.295 -3.07,-2.1 -3.34,-1.083 -0.27000004,1.011 2.943,1.304 2.745,2.006 -0.2,0.7 -2.265,-1.324 -2.685,-0.537 -0.42500004,0.79 2.913,1.718 2.94,1.725 1.075,0.276 3.813,0.859 4.77,-0.522 z m 4.4319998,0 c -0.687,-0.994 -0.64,-1.74 0.305,-2.667 0.943,-0.928 1.493,-2.288 1.493,-2.288 0,0 0.205,-0.788 0.675,-0.714 0.465,0.074 0.807,1.25 -0.17,1.971 -0.98,0.721 0.195,1.21 0.57,0.534 0.377,-0.677 1.407,-2.416 1.94,-2.751 0.532,-0.332 0.91,-0.148 0.782,0.541 -0.125,0.687 -2.355,2.35 -2.137,2.707 0.215,0.362 0.98,-0.42 0.98,-0.42 0,0 2.395,-2.145 2.915,-1.585 0.52,0.558 -0.395,1.026 -1.7,1.803 -1.308,0.778 -1.408,0.985 -1.225,1.28 0.187,0.295 3.07,-2.1 3.34,-1.083 0.27,1.011 -2.94,1.304 -2.743,2.006 0.2,0.7 2.263,-1.324 2.685,-0.537 0.423,0.79 -2.912,1.718 -2.94,1.725 -1.077,0.276 -3.815,0.859 -4.77,-0.522 z"
     fill="#ffd21e"
     id="path6" />
  <metadata
     id="metadata6">
    <rdf:RDF>
      <cc:Work
         rdf:about="">
        <dc:title>HuggingFace</dc:title>
      </cc:Work>
    </rdf:RDF>
  </metadata>
</svg>
