<?xml version="1.0" encoding="UTF-8" standalone="no"?>
<svg
   sodipodi:docname="vsv_logo.svg"
   inkscape:version="1.3.2 (091e20e, 2023-11-25, custom)"
   inkscape:export-ydpi="300.16974"
   inkscape:export-xdpi="300.16974"
   inkscape:export-filename="C:\Users\marce\Desktop\vsv_logo.png"
   id="svg8"
   version="1.1"
   viewBox="0 0 406.63015 66.087273"
   height="66.087273mm"
   width="406.63016mm"
   xmlns:inkscape="http://www.inkscape.org/namespaces/inkscape"
   xmlns:sodipodi="http://sodipodi.sourceforge.net/DTD/sodipodi-0.dtd"
   xmlns="http://www.w3.org/2000/svg"
   xmlns:svg="http://www.w3.org/2000/svg"
   xmlns:rdf="http://www.w3.org/1999/02/22-rdf-syntax-ns#"
   xmlns:cc="http://creativecommons.org/ns#"
   xmlns:dc="http://purl.org/dc/elements/1.1/">
  <defs
     id="defs2" />
  <sodipodi:namedview
     inkscape:window-maximized="1"
     inkscape:window-y="-9"
     inkscape:window-x="-9"
     inkscape:window-height="991"
     inkscape:window-width="1920"
     fit-margin-bottom="0"
     fit-margin-right="0"
     fit-margin-left="0"
     fit-margin-top="0"
     showgrid="false"
     inkscape:document-rotation="0"
     inkscape:current-layer="layer1"
     inkscape:document-units="mm"
     inkscape:cy="62.142857"
     inkscape:cx="775"
     inkscape:zoom="0.7"
     inkscape:pageshadow="2"
     inkscape:pageopacity="0.0"
     borderopacity="1.0"
     bordercolor="#666666"
     pagecolor="#ffffff"
     id="base"
     inkscape:showpageshadow="0"
     inkscape:pagecheckerboard="1"
     inkscape:deskcolor="#505050" />
  <metadata
     id="metadata5">
    <rdf:RDF>
      <cc:Work
         rdf:about="">
        <dc:format>image/svg+xml</dc:format>
        <dc:type
           rdf:resource="http://purl.org/dc/dcmitype/StillImage" />
      </cc:Work>
    </rdf:RDF>
  </metadata>
  <g
     transform="translate(-16.851383,-14.203392)"
     id="layer1"
     inkscape:groupmode="layer"
     inkscape:label="Ebene 1">
    <g
       transform="matrix(0.03527778,0,0,-0.03527778,16.851383,80.290668)"
       id="g843">
      <path
         id="path845"
         style="fill:#f1471d;fill-opacity:1;fill-rule:evenodd;stroke:none"
         d="m 3584.99,1313.58 303.5,559.75 h 345.64 l -504.6,-903.412 -272.49,-1.117 -129.66,0.535 c 61.01,131.074 88.37,279.554 14.5,412.284 -51.61,92.73 -137.93,166.57 -241.56,201.13 l -155.57,290.59 348.85,-0.01 z M 311.563,365.398 480.16,729.512 H 619.691 L 379.801,217.301 H 249.477 L 0,729.512 H 146.77 Z M 905.797,739.301 C 1069.5,739.211 1185.57,615.262 1188.19,474.809 1190.81,334.371 1079.4,201.949 903.551,206.852 727.688,211.73 627.301,334.07 628.391,472.711 c 1.082,138.648 113.695,266.668 277.406,266.59 z M 765.598,473.031 c -1.336,-66.39 48.699,-143.359 142.644,-145.992 93.938,-2.617 143.278,66.039 143.278,145.012 0,78.988 -53.336,144.969 -143.278,145.64 -89.945,0.661 -141.312,-78.293 -142.644,-144.66 z m 737.242,-255.73 c -33.73,0 -67.62,2.211 -100.83,7.429 -35.34,5.532 -64.73,23.04 -89.1,45.961 -22.13,20.77 -37.64,45.028 -43.84,73.258 -5.9,26.762 -8.74,54.02 -8.74,81.313 v 304.25 H 1391 V 470.051 c 0,-32.231 2.14,-74.571 16.69,-104.539 15.04,-30.934 73.62,-33.774 105.28,-33.621 l 145.53,0.73 v -115.32 z m 360.49,281.519 212.13,230.692 h 157.81 L 2002.78,478.941 2235.35,217.301 H 2068.3 l -204.97,238.23 v -238.23 h -130.64 v 512.211 h 130.64 z m 759.87,-141.629 138.63,372.321 h 183.64 V 217.301 h -128.43 l -0.58,333.398 -123.01,-333.398 h -134.23 l -125.96,334.168 0.05,-334.168 h -133.16 v 512.211 h 184.43 z m 804.85,-36.781 -211.91,0.449 -49.27,-103.558 h -154.62 l 242.27,512.211 h 133.47 l 244.69,-512.211 h -154.74 z m -111.02,258.762 -72.82,-159.152 143.83,0.019 z m 760.65,-193.684 -5.23,344.024 h 133.08 V 217.301 h -146.81 l -231.46,362.871 5.24,-362.871 h -133.85 v 512.211 h 159.31 z m 624.83,0 -5.24,344.024 h 133.09 V 217.301 h -146.82 l -231.44,362.871 5.23,-362.871 h -133.85 v 512.211 h 159.31 z m -3458.61,928.102 105.79,197.97 c 113.78,-11.67 221.67,-21.93 323.67,-31.31 L 1388.44,969.922 H 1100.8 L 596.207,1873.32 H 941.82 Z m 120.94,225.8 182.59,333.93 h 345.61 l -183.03,-327.68 c -120.44,-2.77 -236.66,-5.25 -345.17,-6.25 z m 1227.18,-250.45 h -529.08 c -166.19,0 -257.76,90.29 -268.53,179.17 6.02,-0.47 63.51,-6.08 69.53,-6.56 125.6,-9.95 258.23,-22.42 382.45,-37.86 128.79,-16.01 244.86,-32.85 334.87,-54.78 110.8,-27 178.51,-71.55 192.05,-126.36 7.19,-29.15 -0.88,-53.32 -17.23,-80.37 -91.34,-151.3 -502.03,-175.754 -639.58,-192.262 h -204.36 l -442.4,0.824 125.13,231.678 1009.3,-0.83 c 43.05,3.52 48.68,13.91 54.62,33.68 8.35,27.8 -17.43,54.15 -66.77,53.67 z m -376.06,584.38 h 641.42 l 142.08,-258.54 c -131.81,22.82 -302.64,25.15 -480.24,26.68 h -249.21 c -26.1,-0.48 -56.27,-4.55 -63.64,-30.01 -5.76,-19.85 4.34,-31.61 22.29,-34.04 196.71,0.79 389.13,-0.32 567.95,-12.39 43.93,-2.91 77.13,-6.41 113.01,-10.38 188.2,-20.85 331.49,-114.34 381.1,-241.28 36.63,-93.69 26.2,-220.84 -45.21,-343.442 h -41.4 c 72.79,105.292 87.93,215.652 65.75,300.682 -37.06,142.13 -199.57,244.08 -389.72,260.86 -295.96,26.04 -591.4,24.4 -919.28,19.11 -39.44,-0.64 -122.18,-1.32 -162.62,-2.06 38.38,202.16 195.54,322.85 417.72,324.81" />
      <path
         id="path847"
         style="fill:#706d6e;fill-opacity:1;fill-rule:evenodd;stroke:none"
         d="m 1355.43,1526.71 52.33,-5.47 c 151.96,-14.76 556.21,-43.92 889.48,-83.14 104.1,-12.25 199.42,-26.01 278.31,-44.43 57.97,-13.51 127.76,-36.91 174.37,-75.08 35.72,-29.25 61.16,-67.33 47.13,-125.69 -31.53,-131.01 -259.65,-203.654 -483.17,-223.22 l 203.38,-0.496 h 211.03 c 53.11,18.433 145.37,73.506 187.2,116.826 l 118.5,0.34 c -32.79,-42.11 -80.27,-82.34 -140.66,-117.166 h 271.88 c 94.32,105.326 102.52,250.966 62.47,334.686 -52.72,110.19 -188.44,185.99 -324.82,201.7 -128.66,18.24 -261.67,24.33 -391.37,27.66 -155.15,4 -310.58,2.95 -465.75,0.45 -69.88,-1.11 -139.77,-2.58 -209.65,-4.18 -141.69,-3.36 -281.13,-3.11 -422.86,-2.11 z M 198.176,115.289 h -79.567 c -6.949,-0.148 -12.832,-1.437 -17.539,-3.988 -4.7809,-2.5 -7.1403,-7.289 -7.1403,-14.3518 0,-5.4297 2.0117,-9.3008 6.0351,-11.6211 4.0702,-2.3086 8.8082,-3.4492 14.1992,-3.4492 l 42.633,0.1914 c 1.555,-0.1211 3.187,-0.1914 4.937,-0.1914 1.707,0 3.375,-0.0703 5.082,-0.1875 5.012,-0.2617 9.914,-1.0312 14.731,-2.2422 4.824,-1.2187 9.113,-3.4101 12.793,-6.6484 3.379,-2.8399 5.965,-6.2617 7.672,-10.2422 1.703,-3.9883 2.765,-8.0898 3.187,-12.3398 0.149,-1.2774 0.227,-2.5391 0.344,-3.7579 0.074,-1.25 0.113,-2.5 0.113,-3.789 -0.308,-16.0625 -5.203,-27 -14.734,-32.73049 C 181.359,4.21094 168.453,1.37109 152.129,1.37109 H 66.3711 V 26.0703 h 80.6329 c 7.098,-0.1015 13.25,0.918 18.449,3.0781 5.203,2.211 7.285,7.1797 6.262,14.8829 -0.684,6.039 -3.149,9.7968 -7.442,11.1992 -4.289,1.4101 -9.3,2.1992 -15.148,2.3203 l -37.957,0.1797 c -15.7578,-0.1016 -28.2032,2.7383 -37.3946,8.5898 -9.1836,5.8789 -13.664,16.4688 -13.5468,31.7813 0.3007,16.0894 5.2343,27.0584 14.8047,32.9104 9.6015,5.867 22.582,8.797 38.9487,8.797 L 198.176,140 Z m 88.679,0.371 h -49.273 v 24.149 h 132.18 V 115.66 H 320.109 V 1.37109 H 286.855 Z M 408.98,140 h 79.297 c 1.59,-0.16 3.11,-0.191 4.594,-0.191 1.481,0 3.031,-0.071 4.594,-0.188 5.808,-0.262 11.578,-1.101 17.16,-2.543 5.574,-1.406 10.551,-4.019 14.805,-7.898 3.867,-3.34 6.715,-7.289 8.652,-11.77 1.938,-4.512 3.109,-9.148 3.531,-13.93 0,-0.871 0.039,-1.781 0.078,-2.691 0.071,-0.8788 0.11,-1.789 0.11,-2.6874 0.152,-9.6524 -2.313,-18 -7.367,-25.0235 -5.043,-7 -12.868,-11.6562 -23.571,-13.9765 L 549.055,1.37109 H 512.797 L 479.125,55.8008 H 441.168 V 1.37109 H 408.98 Z m 71.625,-24.711 H 441.168 V 80.3203 h 39.437 c 0.309,-0.1094 0.571,-0.1797 0.875,-0.1797 0.266,0 0.532,0 0.836,0 6.836,0 13.059,0.9375 18.68,2.8008 5.617,1.8594 8.313,6.7969 8.199,14.7695 0,8.2381 -2.961,13.1681 -8.847,14.8791 -5.922,1.68 -12.485,2.512 -19.743,2.512 z M 636.48,140 h 34.125 L 735.824,1.37109 H 700.023 L 685.941,34.3906 H 619.395 L 605.766,1.37109 h -33.895 z m 15.75,-27.641 -22.394,-53.2574 h 45.668 z m 247.321,2.93 h -79.567 c -6.949,-0.148 -12.832,-1.437 -17.539,-3.988 -4.785,-2.5 -7.132,-7.289 -7.132,-14.3518 0,-5.4297 2.007,-9.3008 6.035,-11.6211 4.058,-2.3086 8.804,-3.4492 14.195,-3.4492 l 42.633,0.1914 c 1.554,-0.1211 3.187,-0.1914 4.89,-0.1914 1.75,0 3.422,-0.0703 5.129,-0.1875 5.012,-0.2617 9.907,-1.0312 14.727,-2.2422 4.82,-1.2187 9.074,-3.4101 12.797,-6.6484 3.379,-2.8399 5.922,-6.2617 7.664,-10.2422 1.711,-3.9883 2.773,-8.0898 3.191,-12.3398 0.156,-1.2774 0.227,-2.5391 0.301,-3.7579 0.117,-1.25 0.156,-2.5 0.156,-3.789 -0.301,-16.0625 -5.199,-27 -14.73,-32.73049 C 882.734,4.21094 869.824,1.37109 853.508,1.37109 H 767.75 V 26.0703 h 80.629 c 7.101,-0.1015 13.246,0.918 18.453,3.0781 5.195,2.211 7.285,7.1797 6.266,14.8829 -0.688,6.039 -3.196,9.7968 -7.442,11.1992 -4.293,1.4101 -9.308,2.1992 -15.148,2.3203 l -37.965,0.1797 c -15.789,-0.1016 -28.207,2.7383 -37.391,8.5898 -9.191,5.8789 -13.668,16.4688 -13.554,31.7813 0.308,16.0894 5.238,27.0584 14.804,32.9104 9.606,5.867 22.586,8.797 38.95,8.797 L 899.551,140 Z m 184.639,0 h -79.56 c -6.989,-0.148 -12.833,-1.437 -17.579,-3.988 -4.785,-2.5 -7.133,-7.289 -7.133,-14.3518 0,-5.4297 2.012,-9.3008 6.035,-11.6211 4.059,-2.3086 8.809,-3.4492 14.237,-3.4492 l 42.63,0.1914 c 1.52,-0.1211 3.19,-0.1914 4.9,-0.1914 1.7,0 3.37,-0.0703 5.12,-0.1875 4.97,-0.2617 9.87,-1.0312 14.69,-2.2422 4.82,-1.2187 9.12,-3.4101 12.79,-6.6484 3.38,-2.8399 5.96,-6.2617 7.67,-10.2422 1.71,-3.9883 2.77,-8.0898 3.19,-12.3398 0.15,-1.2774 0.27,-2.5391 0.34,-3.7579 0.08,-1.25 0.12,-2.5 0.12,-3.789 -0.31,-16.0625 -5.2,-27 -14.73,-32.73049 -9.53,-5.73047 -22.44,-8.57032 -38.8,-8.57032 H 952.395 V 26.0703 h 80.585 c 7.1,-0.1015 13.26,0.918 18.46,3.0781 5.2,2.211 7.29,7.1797 6.29,14.8829 -0.71,6.039 -3.18,9.7968 -7.47,11.1992 -4.25,1.4101 -9.3,2.1992 -15.11,2.3203 l -37.998,0.1797 c -15.754,-0.1016 -28.207,2.7383 -37.39,8.5898 -9.192,5.8789 -13.668,16.4688 -13.555,31.7813 0.301,16.0894 5.238,27.0584 14.805,32.9104 9.605,5.867 22.586,8.797 38.949,8.797 L 1084.19,140 Z m 118.29,0.57 c -11.84,-0.121 -20.61,-3 -26.45,-8.578 -5.81,-5.621 -9.12,-13.5505 -9.8,-23.8396 l 89.1,0.1797 V 59.4805 h -89.32 c 0,-4.8907 0.64,-9.6016 1.82,-14.0821 1.21,-4.5195 3.68,-8.6484 7.36,-12.3671 3.27,-3.461 7.14,-5.6329 11.62,-6.461 4.47,-0.8398 9.03,-1.25 13.74,-1.25 0.3,0 0.61,0 0.95,0 0.34,0 0.68,0 0.98,0 l 52.85,0.1914 V 1.37109 h -54.37 c -8.69,0 -17,0.71875 -25.01,2.11719 -8.05,1.40235 -15.64,4.71094 -22.74,9.83202 -8.5,6.3086 -14.5,14.0078 -17.88,23.0899 -3.45,9.0703 -5.28,18.3711 -5.58,27.8984 -0.12,2.0508 -0.19,4.0625 -0.08,5.9922 0.08,1.9375 0.15,3.8398 0.35,5.7695 1.51,21.9102 8.12,37.9997 19.7,48.2887 11.54,10.289 28.96,15.45 52.12,15.45 L 1255.33,140 V 115.859 Z M 1307.1,140 h 40.78 L 1410.51,40.3516 1409.03,140 h 32.84 V 1.37109 H 1404.6 L 1338.69,106.211 1340.17,1.37109 h -33.07 z m 179.11,-74.3281 h 71.63 V 41.5313 h -71.63 z M 1716.86,140 V 56.9688 c 0,-11.7305 2.24,-20.4493 6.84,-26.2579 4.51,-5.8125 13.78,-8.6914 27.67,-8.6914 13.93,0 23.16,2.8789 27.63,8.6914 4.45,5.8086 6.72,14.5 6.72,26.0782 V 140 h 32.2 V 56.1797 c 0,-1.668 0,-3.3399 0,-5.0078 0,-1.6719 -0.08,-3.2617 -0.23,-4.8203 -0.16,-4.8907 -0.84,-9.6797 -2.05,-14.3907 -1.18,-4.6992 -3.42,-9.1093 -6.68,-13.2109 C 1804.4,13.1016 1798.55,8.89063 1791.38,6.17969 1784.17,3.48828 1776.76,1.75 1769.06,0.988281 1766.1,0.609375 1763.14,0.339844 1760.14,0.191406 1757.14,0.078125 1754.25,0 1751.37,0 c -2.66,0 -5.47,0.078125 -8.43,0.191406 -2.89,0.148438 -5.84,0.417969 -8.84,0.796875 C 1726.31,1.62891 1718.76,3.30078 1711.51,6 c -7.25,2.69141 -13.21,6.9414 -17.88,12.75 -3.26,4.1016 -5.5,8.5117 -6.64,13.2109 -1.14,4.711 -1.75,9.5 -1.94,14.3907 -0.11,1.5586 -0.19,3.1484 -0.19,4.8203 0,1.6679 0,3.2969 0,4.8164 V 140 Z m 155.8,0 h 40.77 L 1976.06,40.3516 1974.58,140 h 32.84 V 1.37109 h -37.28 l -65.9,104.83991 1.48,-104.83991 h -33.06 z m 189.54,0 h 70.15 c 23.31,-0.16 40.74,-5.352 52.24,-15.641 11.5,-10.289 18.03,-26.3785 19.62,-48.2887 0.12,-1.9297 0.27,-3.832 0.31,-5.7695 0.07,-1.9297 0.04,-3.9414 -0.08,-5.9922 -0.3,-9.5273 -2.16,-18.8281 -5.58,-27.8984 -3.42,-9.0821 -9.38,-16.7813 -17.92,-23.0899 -6.95,-5.12108 -14.46,-8.42967 -22.47,-9.83202 -8.05,-1.39844 -16.48,-2.11719 -25.29,-2.11719 h -70.98 z m 69.5,-24.141 h -37.31 V 25.5117 h 37.31 c 0.27,-0.1601 0.61,-0.1914 0.96,-0.1914 0.37,0 0.68,0 0.94,0 4.71,0 9.27,0.4102 13.78,1.25 4.49,0.8281 8.43,3 11.8,6.461 3.46,3.5976 5.85,7.6601 7.18,12.1796 1.34,4.4805 2.2,9.0782 2.62,13.711 0.2,1.8984 0.27,3.8281 0.27,5.7695 0,1.9297 0,3.8594 0,5.7969 0,1.9414 0,3.9531 0,6.0703 0,2.1328 -0.15,4.2227 -0.46,6.2695 -0.26,4.5117 -1.09,8.961 -2.43,13.3203 -1.33,4.4106 -3.72,8.2426 -7.18,11.5816 -3.37,3.489 -7.31,5.7 -11.8,6.571 -4.51,0.91 -9.07,1.359 -13.78,1.359 -0.26,0 -0.57,0 -0.94,0 -0.35,0 -0.69,0 -0.96,0 z M 2376.82,1.37109 2310.31,140 h 36.26 L 2392.65,36.7109 2439.76,140 h 34.28 L 2410.11,1.37109 Z M 2568.91,115.859 c -11.81,-0.121 -20.61,-3 -26.42,-8.578 -5.85,-5.621 -9.12,-13.5505 -9.84,-23.8396 l 89.14,0.1797 V 59.4805 h -89.32 c 0,-4.8907 0.6,-9.6016 1.77,-14.0821 1.22,-4.5195 3.69,-8.6484 7.38,-12.3671 3.3,-3.461 7.13,-5.6329 11.61,-6.461 4.52,-0.8398 9.07,-1.25 13.78,-1.25 0.27,0 0.57,0 0.95,0 0.34,0 0.68,0 0.95,0 l 52.88,0.1914 V 1.37109 h -54.36 c -8.69,0 -17.04,0.71875 -25.06,2.11719 -8.04,1.40235 -15.64,4.71094 -22.7,9.83202 -8.5,6.3086 -14.5,14.0078 -17.92,23.0899 -3.41,9.0703 -5.27,18.3711 -5.58,27.8984 -0.11,2.0508 -0.15,4.0625 -0.07,5.9922 0.07,1.9375 0.18,3.8398 0.34,5.7695 1.55,21.9102 8.13,37.9997 19.7,48.2887 11.58,10.289 28.96,15.45 52.16,15.45 L 2621.79,140 V 115.859 Z M 2673.57,140 h 79.3 c 1.59,-0.16 3.11,-0.191 4.6,-0.191 1.47,0 3.02,-0.071 4.59,-0.188 5.81,-0.262 11.58,-1.101 17.15,-2.543 5.58,-1.406 10.56,-4.019 14.81,-7.898 3.87,-3.34 6.72,-7.289 8.65,-11.77 1.94,-4.512 3.12,-9.148 3.54,-13.93 0,-0.871 0.04,-1.781 0.07,-2.691 0.07,-0.8788 0.11,-1.789 0.11,-2.6874 0.12,-9.6524 -2.31,-18 -7.36,-25.0235 -5.05,-7 -12.87,-11.6562 -23.58,-13.9765 l 38.2,-57.73051 h -36.26 l -33.67,54.42971 h -37.96 V 1.37109 h -32.19 z m 71.63,-24.711 h -39.44 V 80.3203 h 39.44 c 0.3,-0.1094 0.57,-0.1797 0.88,-0.1797 0.25,0 0.53,0 0.83,0 6.84,0 13.06,0.9375 18.67,2.8008 5.63,1.8594 8.32,6.7969 8.2,14.7695 0,8.2381 -2.95,13.1681 -8.84,14.8791 -5.92,1.68 -12.48,2.512 -19.74,2.512 z M 2857.11,140 h 32.19 V 73.3789 L 2949.7,140 h 38.57 l -61.42,-67.7617 62.06,-70.86721 h -41.15 L 2889.3,70.3008 V 1.37109 h -32.19 z m 229.86,-24.141 c -11.81,-0.121 -20.62,-3 -26.46,-8.578 -5.81,-5.621 -9.07,-13.5505 -9.79,-23.8396 l 89.13,0.1797 V 59.4805 h -89.37 c 0,-4.8907 0.66,-9.6016 1.83,-14.0821 1.22,-4.5195 3.68,-8.6484 7.36,-12.3671 3.26,-3.461 7.14,-5.6329 11.62,-6.461 4.48,-0.8398 9.08,-1.25 13.74,-1.25 0.31,0 0.61,0 0.99,0 0.34,0 0.65,0 0.95,0 l 52.88,0.1914 V 1.37109 h -54.4 c -8.66,0 -17.01,0.71875 -25.02,2.11719 -8.04,1.40235 -15.64,4.71094 -22.7,9.83202 -8.5,6.3086 -14.5,14.0078 -17.92,23.0899 -3.41,9.0703 -5.27,18.3711 -5.58,27.8984 -0.11,2.0508 -0.15,4.0625 -0.07,5.9922 0.07,1.9375 0.15,3.8398 0.34,5.7695 1.56,21.9102 8.12,37.9997 19.7,48.2887 11.59,10.289 28.97,15.45 52.16,15.45 L 3139.85,140 V 115.859 Z M 3223.81,140 V 83.8203 h 59.08 V 140 h 32.19 V 1.37109 h -32.19 V 59.3008 h -59.08 V 1.37109 h -32.18 V 140 Z m 146.47,0 h 79.3 c 1.6,-0.16 3.11,-0.191 4.62,-0.191 1.45,0 3.01,-0.071 4.56,-0.188 5.84,-0.262 11.58,-1.101 17.16,-2.543 5.62,-1.406 10.56,-4.019 14.85,-7.898 3.83,-3.34 6.68,-7.289 8.61,-11.77 1.93,-4.512 3.12,-9.148 3.54,-13.93 0,-0.871 0.02,-1.781 0.06,-2.691 0.08,-0.8788 0.16,-1.789 0.16,-2.6874 0.12,-9.6524 -2.31,-18 -7.4,-25.0235 -5.01,-7 -12.87,-11.6562 -23.54,-13.9765 l 38.19,-57.73051 h -36.29 l -33.64,54.42971 h -37.99 V 1.37109 h -32.19 z m 71.63,-24.711 h -39.44 V 80.3203 h 39.44 c 0.3,-0.1094 0.6,-0.1797 0.87,-0.1797 0.26,0 0.57,0 0.88,0 6.83,0 13.02,0.9375 18.63,2.8008 5.63,1.8594 8.35,6.7969 8.2,14.7695 0,8.2381 -2.96,13.1681 -8.84,14.8791 -5.88,1.68 -12.49,2.512 -19.74,2.512 z m 241.4,0 h -79.57 c -6.95,-0.148 -12.84,-1.437 -17.58,-3.988 -4.78,-2.5 -7.13,-7.289 -7.13,-14.3518 0,-5.4297 2.01,-9.3008 6.03,-11.6211 4.1,-2.3086 8.8,-3.4492 14.24,-3.4492 l 42.63,0.1914 c 1.55,-0.1211 3.18,-0.1914 4.89,-0.1914 1.71,0 3.38,-0.0703 5.13,-0.1875 4.97,-0.2617 9.87,-1.0312 14.69,-2.2422 4.82,-1.2187 9.11,-3.4101 12.79,-6.6484 3.42,-2.8399 5.97,-6.2617 7.67,-10.2422 1.74,-3.9883 2.77,-8.0898 3.19,-12.3398 0.19,-1.2774 0.26,-2.5391 0.34,-3.7579 0.08,-1.25 0.12,-2.5 0.12,-3.789 -0.27,-16.0625 -5.21,-27 -14.7,-32.73049 -9.56,-5.73047 -22.47,-8.57032 -38.83,-8.57032 H 3551.5 V 26.0703 h 80.6 c 7.09,-0.1015 13.25,0.918 18.44,3.0781 5.21,2.211 7.3,7.1797 6.31,14.8829 -0.72,6.039 -3.19,9.7968 -7.48,11.1992 -4.26,1.4101 -9.31,2.1992 -15.11,2.3203 l -38,0.1797 c -15.76,-0.1016 -28.21,2.7383 -37.4,8.5898 -9.18,5.8789 -13.66,16.4688 -13.5,31.7813 0.26,16.0894 5.23,27.0584 14.76,32.9104 9.6,5.867 22.63,8.797 38.95,8.797 l 84.24,0.191 z m 88.64,0.371 h -49.24 v 24.149 h 132.18 V 115.66 H 3805.2 V 1.37109 h -33.25 z m 185.24,0.199 c -11.79,-0.121 -20.6,-3 -26.45,-8.578 -5.81,-5.621 -9.07,-13.5505 -9.8,-23.8396 l 89.13,0.1797 V 59.4805 h -89.35 c 0,-4.8907 0.64,-9.6016 1.81,-14.0821 1.23,-4.5195 3.69,-8.6484 7.37,-12.3671 3.27,-3.461 7.14,-5.6329 11.62,-6.461 4.48,-0.8398 9.07,-1.25 13.74,-1.25 0.3,0 0.61,0 0.99,0 0.34,0 0.68,0 0.94,0 l 52.88,0.1914 V 1.37109 h -54.39 c -8.65,0 -17,0.71875 -25.02,2.11719 -8.05,1.40235 -15.64,4.71094 -22.7,9.83202 -8.5,6.3086 -14.5,14.0078 -17.92,23.0899 -3.41,9.0703 -5.27,18.3711 -5.58,27.8984 -0.11,2.0508 -0.15,4.0625 -0.07,5.9922 0.07,1.9375 0.15,3.8398 0.34,5.7695 1.55,21.9102 8.12,37.9997 19.7,48.2887 11.58,10.289 28.96,15.45 52.16,15.45 l 53.48,0.191 v -24.141 z m 167.8,0.379 c -15.53,-0.117 -25.55,-4.75 -30.07,-13.898 -4.59,-9.1486 -7.06,-19.7384 -7.47,-31.8517 0,-2.0391 0,-4.168 0,-6.2969 0,-2.0898 0.04,-4.25 0.22,-6.4609 0.42,-4.5117 1.33,-8.9102 2.77,-13.211 1.4,-4.3203 3.76,-8.1484 7.03,-11.4882 3.41,-3.461 7.32,-5.6329 11.83,-6.461 4.48,-0.8398 9.05,-1.25 13.75,-1.25 0.3,0 0.57,0 0.95,0 0.34,0 0.68,0 0.99,0 l 52.84,0.1914 V 1.37109 h -54.36 c -8.7,0 -17.01,0.71875 -25.02,2.11719 -8.04,1.40235 -15.64,4.71094 -22.73,9.83202 -8.51,6.3086 -14.5,14.0078 -17.88,23.0899 -3.46,9.0703 -5.33,18.3711 -5.59,27.8984 -0.15,2.0508 -0.19,4.0625 -0.12,5.9922 0.12,1.9375 0.2,3.8398 0.35,5.7695 1.56,21.9102 8.16,37.9997 19.7,48.2887 11.58,10.289 28.97,15.45 52.16,15.45 L 4177.83,140 V 116.238 Z M 4257.32,140 V 83.8203 h 59.07 V 140 h 32.19 V 1.37109 h -32.19 V 59.3008 h -59.07 V 1.37109 h -32.19 V 140 Z m 146.45,0 h 40.78 L 4507.22,40.3516 4505.71,140 h 32.87 V 1.37109 h -37.32 l -65.9,104.83991 1.52,-104.83991 h -33.11 z M 4627.21,1.37109 h -33.7 V 140 h 33.7 z M 4682.6,140 h 32.19 V 73.3789 L 4775.15,140 h 38.58 L 4752.3,72.2383 4814.41,1.37109 h -41.19 L 4714.79,70.3008 V 1.37109 H 4682.6 Z M 1485.41,1521.45 c 19.31,-1.68 98.14,-7.99 193.17,-12.83 l 4.18,7.65 c -72.06,1.8 -139.56,5.18 -197.35,5.18 z m 280.79,-14.88 169.63,-11.34 9.5,17.54 c -57.67,1.88 -117.68,0.09 -174.84,1.7 z m 258.1,-16 c 61.04,-3.25 117.02,-6.33 162.73,-9.08 l 12.23,22.53 -164.54,5.73 z m 250.59,-14.89 c 10.89,-0.85 19.18,-1.61 24.51,-2.24 37.29,-3.96 76.48,-7.39 116.5,-10.88 l 27.37,31.96 c -44.2,2.3 -90.13,4.15 -137.4,5.76 l -17.28,0.6 z m 225.57,-20.66 c 53.21,-5.02 106.49,-10.8 157.46,-18.65 l 32.93,36.87 c -49.44,6.77 -103.42,11.93 -161.05,16 z m 235.7,-32.98 c 56.13,-12.18 107.23,-28.17 149.35,-50.01 l 44.99,39.33 c -40.84,18.5 -89.75,33.81 -146.98,46.01 l -13.35,2.76 z m 217.43,-98.96 c 62.97,-43.84 63.33,-95.21 23.23,-150.33 l 102.76,0.35 c 21.87,78.42 0.3,150.77 -74.91,194.66 l -51.08,-44.68" />
    </g>
    <g
       transform="matrix(0.26458333,0,0,0.26458333,246.29895,-85.769273)"
       id="layer1-7">
      <path
         d="m 271.0889,441.05367 v 36.89704 c 0,1.83664 -1.57975,4.86494 -3.4164,6.69613 l -37.58032,37.58031 c -0.91833,0.91833 -1.85852,1.36657 -2.4598,1.36657 -0.60129,0 -0.9566,-0.44824 -0.9566,-1.36657 v 4.09968 c 0,1.83665 1.57975,3.4164 3.4164,3.4164 h 81.85677 c 1.83665,0 3.41639,-1.57975 3.41639,-3.4164 V 444.3334 c 0,-1.83666 -1.57974,-3.27973 -3.41639,-3.27973 z m -52.06583,85.27316 c 0,1.83665 -1.58521,3.4164 -3.41639,3.4164 h -40.86007 v 44.54975 c 0,0.91832 0.36077,1.36656 0.95659,1.36656 0.59583,0 1.40483,-0.44824 2.32315,-1.36656 l 37.58033,-37.58032 c 1.83118,-1.83665 3.41639,-4.85948 3.41639,-6.69613 z"
         id="path84"
         style="fill:#7d8990;fill-opacity:1;fill-rule:nonzero;stroke:none" />
      <path
         d="m 270.1323,394.59072 c -0.60404,0 -1.54147,0.44823 -2.4598,1.36656 l -37.58032,37.71698 c -1.83118,1.83119 -3.4164,4.72282 -3.4164,6.55948 v 4.09966 77.89375 c 0,1.83666 1.58522,1.83666 3.4164,0 l 37.58032,-37.58031 c 1.83665,-1.83665 3.4164,-4.85949 3.4164,-6.69613 v -36.89704 -45.09639 c 0,-0.91833 -0.35247,-1.36656 -0.9566,-1.36656 z m -136.3824,46.46295 c -1.83665,0 -3.41639,1.44307 -3.41639,3.27973 v 81.99343 c 0,1.83665 1.57974,3.4164 3.41639,3.4164 h 81.85678 c 1.83665,0 3.41639,-1.57975 3.41639,-3.4164 V 444.3334 c 0,-1.83666 -1.57974,-3.27973 -3.41639,-3.27973 z"
         id="path88"
         style="fill:#e2001a;fill-opacity:1;fill-rule:nonzero;stroke:none" />
      <path
         d="m 230.09218,441.05367 c -1.83665,0 -3.4164,1.57974 -3.4164,3.41639 v 77.75709 c 0,0.91833 0.35553,1.36657 0.9566,1.36657 0.60128,0 1.54147,-0.44824 2.4598,-1.36657 l 37.58032,-37.58031 c 1.83665,-1.83665 3.4164,-4.86494 3.4164,-6.69613 v -36.89704 z m -12.0257,5.60288 c -0.60675,0 -1.54148,0.4537 -2.4598,1.36655 l -37.58033,37.71698 c -1.83118,1.86945 -3.27974,4.72829 -3.27974,6.55947 v 37.44368 h 40.86007 c 1.83665,0 3.41639,-1.57975 3.41639,-3.4164 V 448.0231 c 0,-0.91285 -0.35553,-1.36655 -0.95659,-1.36655 z"
         id="path100"
         style="fill:#8e1016;fill-opacity:1;fill-rule:nonzero;stroke:none" />
      <path
         d="m 523.08202,441.19032 c -0.62862,0 -1.20257,0.14737 -1.63987,0.54662 -0.44824,0.4045 -0.68327,0.88007 -0.68327,1.50322 v 84.17992 c 0,0.61768 0.23483,1.19163 0.68327,1.63986 0.4373,0.42637 1.01125,0.68329 1.63987,0.68329 h 20.22504 c 4.14887,0 8.17202,-0.62862 11.88905,-1.77654 3.71704,-1.1643 6.91478,-2.7659 9.70256,-4.9196 2.79323,-2.18102 4.9688,-4.87041 6.55947,-8.06268 1.59067,-3.18681 2.4598,-6.8164 2.4598,-10.79581 0,-2.74951 -0.47556,-5.3569 -1.50321,-7.78937 -1.01672,-2.43794 -2.37781,-4.56976 -4.09967,-6.42283 -1.73279,-1.86397 -3.7553,-3.31252 -6.01285,-4.50963 -2.25209,-1.1971 -4.64083,-2.01703 -7.1061,-2.4598 1.77106,-0.53023 3.55305,-1.39935 5.46623,-2.59647 1.90772,-1.19163 3.73344,-2.64565 5.32957,-4.37297 1.59614,-1.72734 2.90257,-3.71157 3.96301,-5.8762 1.06592,-2.1701 1.63987,-4.4495 1.63987,-6.83279 0,-3.80995 -0.71607,-7.06236 -2.18649,-9.8392 -1.47041,-2.79325 -3.42732,-5.15466 -5.87619,-6.96944 -2.43794,-1.80932 -5.24211,-3.21414 -8.47266,-4.09968 -3.236,-0.88006 -6.64693,-1.2299 -10.11252,-1.2299 z m 61.35841,0 c -0.61768,0 -1.09871,0.15305 -1.50321,0.54662 -0.38832,0.39926 -0.4537,0.88553 -0.27331,1.50322 l 16.94531,84.17992 c 0.18016,0.60675 0.60675,1.19163 1.09325,1.63986 0.48649,0.43162 1.02765,0.68329 1.63987,0.68329 h 6.69612 c 0.62316,0 1.15338,-0.25145 1.63987,-0.68329 0.47556,-0.44823 0.77621,-1.03311 0.95659,-1.63986 l 14.48551,-74.20406 14.62215,74.20406 c 0.17492,0.60675 0.4701,1.19163 0.95659,1.63986 0.4865,0.43162 1.02765,0.68329 1.63987,0.68329 h 6.69614 c 0.62861,0 1.19164,-0.25145 1.63987,-0.68329 0.44822,-0.44823 0.7762,-1.03311 0.95658,-1.63986 l 16.94531,-84.17992 c 0.18585,-0.61769 0.0765,-1.10418 -0.27331,-1.50322 -0.36646,-0.39357 -0.75434,-0.54662 -1.36655,-0.54662 h -5.32958 c -1.3283,0 -2.24662,0.63409 -2.59645,2.04984 l -13.11896,74.3407 -14.62215,-74.3407 c -0.35554,-1.41575 -1.11512,-2.04984 -2.45981,-2.04984 H 623.114 c -1.41028,0 -2.25208,0.63409 -2.59646,2.04984 l -14.48551,74.3407 -13.2556,-74.3407 c -0.36077,-1.41575 -1.32282,-2.04984 -2.73311,-2.04984 z m -53.979,7.78938 h 14.4855 c 4.97427,0 9.04661,1.31189 12.16236,3.96301 3.09935,2.65112 4.6463,6.28069 4.6463,10.7958 0,2.30129 -0.5357,4.34566 -1.50322,6.28616 -0.98392,1.94598 -2.22475,3.65144 -3.82635,5.05627 -1.59067,1.42122 -3.43279,2.48166 -5.46623,3.27974 -2.04437,0.80353 -4.21447,1.22989 -6.42282,1.22989 h -14.07554 z m 0,38.2636 h 14.4855 c 5.59196,0 10.15079,1.54147 13.66557,4.50964 3.49293,2.96269 5.19293,6.88744 5.19293,12.0257 0,2.66205 -0.38265,5.16012 -1.36657,7.37941 -0.97845,2.20835 -2.36687,4.14886 -4.09967,5.73953 -1.72732,1.59615 -3.70611,2.80418 -6.01285,3.6897 -2.30675,0.89647 -4.81028,1.36657 -7.37941,1.36657 h -14.4855 z m -117.52391,62.72496 v 20.22505 c 0,0.54115 0.0306,1.14244 0.13643,1.63987 0.0984,0.49743 0.28994,0.85273 0.54662,1.2299 0.2567,0.36602 0.66689,0.73794 1.09325,0.95659 0.42637,0.2239 0.96752,0.27331 1.63987,0.27331 0.3389,0 0.68875,-0.0218 1.09325,-0.13643 0.4045,-0.1093 0.66141,-0.30087 0.81994,-0.40976 l -0.68329,-1.91317 -0.54662,0.40975 -0.54663,0.13643 c -0.42636,0 -0.78166,-0.26237 -0.95658,-0.68327 -0.18017,-0.43162 -0.27332,-0.9402 -0.27332,-1.63987 v -20.0884 h -2.32314 z m 87.86962,0 v 23.91476 h 2.32314 v -12.16236 l 0.40975,-0.81993 0.81994,-1.09325 c 0.36645,-0.34459 0.88553,-0.70515 1.36656,-0.95659 0.48102,-0.26238 0.96752,-0.40975 1.50321,-0.40975 0.54115,0 0.95113,0.16399 1.36655,0.40975 0.41544,0.24575 0.8254,0.56302 1.09325,0.95659 0.27332,0.38832 0.39925,0.88553 0.54662,1.36655 0.14738,0.4865 0.27332,0.91287 0.27332,1.36657 v 11.34242 h 2.32315 v -11.61574 c 0,-0.69421 -0.0494,-1.36655 -0.27332,-2.04984 -0.2239,-0.68874 -0.65595,-1.36655 -1.09325,-1.91318 -0.43161,-0.53569 -0.96752,-0.90739 -1.63987,-1.2299 -0.67234,-0.32797 -1.42668,-0.54662 -2.32314,-0.54662 -0.58488,0 -1.13698,0.17492 -1.63987,0.40975 -0.50289,0.24051 -0.97845,0.50289 -1.36655,0.81993 -0.39358,0.31136 -0.72155,0.65595 -0.9566,0.95659 l -0.40975,0.68328 v -9.42925 h -2.32314 z m 46.73625,0 v 23.91476 h 2.32315 v -12.16236 l 0.40975,-0.81993 0.81993,-1.09325 c 0.3717,-0.34459 0.74341,-0.70515 1.2299,-0.95659 0.48104,-0.26238 1.10419,-0.40975 1.63987,-0.40975 0.54116,0 0.94566,0.16399 1.36656,0.40975 0.41543,0.24575 0.8254,0.56302 1.09325,0.95659 0.26762,0.38832 0.39925,0.88553 0.54662,1.36655 0.14211,0.4865 0.27331,0.91287 0.27331,1.36657 v 11.34242 h 2.32314 v -11.61574 c 0,-0.69421 -0.18016,-1.36655 -0.40975,-2.04984 -0.21865,-0.68874 -0.51382,-1.36655 -0.95658,-1.91318 -0.4373,-0.53569 -0.96752,-0.90739 -1.63987,-1.2299 -0.67235,-0.32797 -1.41575,-0.54662 -2.32314,-0.54662 -0.57943,0 -1.13698,0.17492 -1.63987,0.40975 -0.5029,0.24051 -0.97846,0.50289 -1.36657,0.81993 -0.39356,0.31136 -0.72153,0.65595 -0.95658,0.95659 l -0.40975,0.68328 v -9.42925 h -2.32315 z m 35.25717,0 v 20.22505 c 0,0.54115 0.0262,1.14244 0.13644,1.63987 0.0931,0.49743 0.28424,0.85273 0.54662,1.2299 0.2567,0.36602 0.53022,0.73794 0.95659,0.95659 0.42637,0.2239 0.96753,0.27331 1.63987,0.27331 0.33367,0 0.81993,-0.0218 1.2299,-0.13643 0.39926,-0.1093 0.66688,-0.30087 0.81994,-0.40976 l -0.68306,-1.91317 -0.54663,0.40975 -0.68327,0.13643 c -0.42068,0 -0.64501,-0.26237 -0.81993,-0.68327 -0.18585,-0.43162 -0.27332,-0.9402 -0.27332,-1.63987 v -20.0884 z m -223.15877,1.50322 v 22.41154 h 5.32957 c 1.39389,0 2.63473,-0.34459 3.82636,-0.95659 1.19164,-0.60129 2.27942,-1.4103 3.14309,-2.4598 0.86365,-1.05499 1.5524,-2.25756 2.04983,-3.68971 0.49196,-1.42669 0.68328,-3.00642 0.68328,-4.64629 0,-1.6836 -0.30611,-3.18135 -0.81994,-4.50964 -0.51929,-1.3283 -1.1315,-2.35595 -2.04984,-3.27974 -0.91832,-0.91833 -2.03343,-1.69453 -3.27972,-2.1865 -1.2463,-0.49195 -2.66206,-0.68327 -4.09968,-0.68327 z m 88.82621,0 v 22.41154 h 2.4598 v -10.65915 h 9.15593 v 10.65915 h 2.45981 v -22.41154 h -2.45981 v 9.70255 h -9.15593 v -9.70255 z m -86.36641,1.91317 h 2.73312 c 0.96752,0 1.84212,0.27857 2.73311,0.68329 0.88553,0.4045 1.6508,0.88006 2.32315,1.63986 0.67235,0.74887 1.23537,1.65081 1.63987,2.73312 0.4045,1.08231 0.68327,2.31768 0.68327,3.68971 0,1.37202 -0.17492,2.64565 -0.54662,3.82636 -0.36645,1.1807 -0.98938,2.26848 -1.63987,3.14307 -0.65048,0.88007 -1.43215,1.54148 -2.32315,2.04984 -0.88552,0.5029 -1.72185,0.81993 -2.73311,0.81993 h -2.86977 z m 39.35685,3.14309 c -0.59035,0 -1.20257,0.14212 -1.77652,0.27331 -0.57395,0.13644 -1.16432,0.23483 -1.63987,0.40975 -0.4701,0.18585 -0.75435,0.38832 -1.09325,0.54662 l -0.68328,0.27332 0.68328,1.91317 0.68328,-0.40975 c 0.32272,-0.16967 0.68874,-0.2405 1.09324,-0.40975 0.4045,-0.16398 0.78168,-0.40974 1.2299,-0.54661 0.4537,-0.13119 0.8746,-0.13645 1.2299,-0.13645 1.21351,0 2.1373,0.33891 2.73312,1.09325 0.59035,0.74887 0.81994,1.6344 0.81994,2.73312 v 1.09324 l -3.27974,0.81993 c -0.65595,0.12551 -1.2955,0.36603 -2.04984,0.68329 -0.74887,0.31136 -1.54147,0.63408 -2.18649,1.09324 -0.63955,0.44276 -1.09325,1.03312 -1.50321,1.63987 -0.42068,0.60675 -0.68327,1.19711 -0.68327,1.91318 0,1.50868 0.55208,2.71672 1.5032,3.55305 0.95659,0.83087 2.20836,1.2299 3.68971,1.2299 0.62861,0 1.08778,-0.0394 1.63987,-0.27331 0.55208,-0.23527 1.07685,-0.64502 1.50321,-0.95659 0.42636,-0.31705 0.83634,-0.50836 1.09324,-0.81993 l 0.40975,-0.68329 v 2.32315 h 2.1865 v -11.61573 c 0,-1.83665 -0.48103,-3.2852 -1.50322,-4.23634 -1.02218,-0.95658 -2.3942,-1.5032 -4.09967,-1.5032 z m 25.96459,0 c -1.03312,0 -1.95692,0.39881 -2.73312,0.95659 -0.7762,0.56849 -1.38295,1.20803 -1.91318,2.04983 -0.52476,0.8418 -0.96206,1.7492 -1.22991,2.73312 -0.2733,0.98939 -0.40974,1.90772 -0.40974,2.73312 0,1.05497 0.0713,2.18649 0.27331,3.27973 0.20203,1.08778 0.59035,2.09357 1.09325,3.00643 0.50835,0.90739 1.1971,1.618 2.04984,2.18649 0.85272,0.57942 1.95144,0.81993 3.27972,0.81993 0.62862,0 1.20258,-0.035 1.77654,-0.13643 0.57395,-0.0985 1.1807,-0.279 1.63986,-0.40976 0.45916,-0.13643 0.77074,-0.2733 1.09324,-0.40975 l 0.68307,-0.2733 -0.68329,-1.91318 -0.68327,0.40974 c -0.29518,0.14738 -0.70515,0.27332 -1.09325,0.40975 -0.39357,0.1312 -0.76527,0.17492 -1.2299,0.27332 -0.45915,0.10363 -0.89645,0.27331 -1.36655,0.27331 -0.78714,0 -1.48682,-0.2462 -2.04984,-0.68328 -0.56302,-0.4373 -1.00578,-0.97845 -1.36655,-1.63987 -0.36078,-0.66688 -0.65049,-1.42122 -0.81994,-2.18649 -0.16924,-0.75981 -0.27331,-1.51415 -0.27331,-2.1865 h 10.11252 v -0.81993 c 0,-0.89099 -0.0603,-1.88038 -0.27331,-2.86976 -0.21865,-0.9894 -0.61222,-1.89679 -1.09325,-2.73312 -0.4865,-0.8254 -1.1315,-1.50868 -1.91317,-2.04984 -0.79261,-0.53568 -1.72187,-0.81993 -2.86977,-0.81993 z m 47.14621,0 c -1.18617,0 -2.15916,0.36077 -3.00642,0.95659 -0.8418,0.59581 -1.51414,1.32283 -2.04984,2.18649 -0.54115,0.86913 -0.98939,1.76559 -1.2299,2.73311 -0.25145,0.96752 -0.40975,1.83666 -0.40975,2.59647 0,0.94565 0.19678,1.91317 0.40975,3.00642 0.21296,1.08777 0.59035,2.08809 1.09325,3.00643 0.50835,0.91833 1.18617,1.70546 2.04983,2.32315 0.86913,0.61221 1.86399,0.95658 3.14308,0.95658 1.23537,0 2.29035,-0.34459 3.14309,-0.95658 0.85273,-0.61769 1.53053,-1.38843 2.04983,-2.32315 0.51929,-0.93473 0.8582,-1.91319 1.09324,-3.00643 0.23483,-1.08778 0.40976,-2.08263 0.40976,-3.00642 0,-0.78168 -0.0494,-1.62348 -0.27332,-2.59647 -0.22958,-0.97845 -0.70514,-1.88038 -1.2299,-2.73311 -0.51383,-0.8582 -1.1971,-1.60708 -2.04983,-2.18649 -0.85274,-0.58489 -1.88586,-0.95659 -3.14309,-0.95659 z m 17.35528,0 c -1.02766,0 -1.91318,0.28949 -2.73311,0.81993 -0.81994,0.52477 -1.48135,1.23537 -2.04984,2.04984 -0.57943,0.80354 -1.04952,1.73827 -1.36656,2.73312 -0.31704,1.00032 -0.54662,1.92411 -0.54662,2.86977 0,1.1479 0.17492,2.30674 0.40975,3.41639 0.23483,1.1151 0.57941,2.13182 1.09325,3.00642 0.51928,0.8746 1.20803,1.50869 2.04983,2.04984 0.84179,0.53569 1.92411,0.81993 3.14308,0.81993 0.55756,0 1.12058,-0.0262 1.63987,-0.13643 0.51929,-0.0985 0.95113,-0.27331 1.36655,-0.40976 0.41543,-0.13643 0.67782,-0.2733 0.9566,-0.40975 l 0.68327,-0.2733 -0.81994,-1.91318 -0.54662,0.40974 -0.95658,0.40975 c -0.34984,0.1312 -0.71062,0.18585 -1.09325,0.27332 -0.38264,0.0927 -0.73247,0.13643 -1.09324,0.13643 -0.75981,0 -1.50322,-0.24052 -2.04984,-0.68327 -0.55209,-0.4373 -1.01672,-0.9402 -1.36656,-1.63987 -0.34984,-0.68875 -0.52475,-1.57428 -0.68327,-2.45981 -0.15831,-0.88553 -0.27332,-1.72186 -0.27332,-2.59645 0,-0.71608 0.0765,-1.4267 0.27332,-2.1865 0.18585,-0.76527 0.45915,-1.54694 0.81993,-2.18649 0.36077,-0.63955 0.84179,-1.09871 1.36656,-1.50321 0.53022,-0.39926 1.10418,-0.68328 1.77652,-0.68328 l 1.09325,0.13644 0.95658,0.40974 0.95659,0.40975 0.40976,0.27332 0.81992,-1.91319 -0.54662,-0.40975 -0.95658,-0.2733 c -0.37739,-0.12026 -0.75434,-0.31705 -1.22991,-0.40976 -0.47009,-0.0875 -1.00578,-0.13643 -1.50321,-0.13643 z m 31.29416,0 c -0.74341,0 -1.39935,0.16398 -2.04984,0.40975 -0.65595,0.25145 -1.27363,0.64501 -1.77653,1.09325 -0.50835,0.44823 -0.94019,1.01125 -1.2299,1.63987 -0.29517,0.62861 -0.40975,1.30642 -0.40975,2.04983 0,0.69421 0.15831,1.25724 0.54663,1.77652 0.39357,0.51929 0.90739,0.94019 1.50321,1.36656 0.59582,0.42636 1.21897,0.86366 1.91318,1.2299 0.69967,0.37695 1.31737,0.72155 1.91319,1.09325 0.59581,0.3717 1.10963,0.83633 1.5032,1.2299 0.39357,0.39357 0.68328,0.73794 0.68328,1.2299 0,0.88007 -0.31704,1.55787 -0.95658,2.04984 -0.63955,0.49742 -1.46495,0.81993 -2.32315,0.81993 -0.4045,0 -0.8746,-0.0218 -1.36656,-0.13644 -0.49743,-0.10929 -0.92926,-0.28424 -1.36656,-0.40975 -0.4373,-0.14212 -0.7598,-0.26237 -1.09324,-0.40975 l -0.6835,-0.40974 -0.81994,1.91318 0.81994,0.40975 c 0.32798,0.13643 0.64501,0.2733 1.09325,0.40975 0.44276,0.13643 1.06045,0.18016 1.63987,0.27331 0.56848,0.0875 1.10417,0.13643 1.77652,0.13643 0.76527,0 1.49775,-0.16398 2.18649,-0.40974 0.68874,-0.24621 1.27363,-0.50837 1.77653,-0.95659 0.50835,-0.4537 0.94018,-1.0222 1.2299,-1.63987 0.28992,-0.61768 0.40975,-1.3283 0.40975,-2.04984 0,-0.62861 -0.14213,-1.13698 -0.54663,-1.63987 -0.4045,-0.50836 -0.90739,-0.94019 -1.50321,-1.36656 -0.59035,-0.42637 -1.20257,-0.85819 -1.91318,-1.2299 -0.71062,-0.36646 -1.45402,-0.70514 -2.04984,-1.09324 -0.59035,-0.37739 -1.10417,-0.80354 -1.50322,-1.2299 -0.4045,-0.42637 -0.54662,-0.86914 -0.54662,-1.36657 0,-0.88005 0.34459,-1.65626 0.95659,-2.18649 0.6013,-0.53022 1.3283,-0.81993 2.1865,-0.81993 l 0.95659,0.13644 1.09325,0.40975 0.81993,0.40975 0.54662,0.2733 0.68328,-1.77652 -0.54663,-0.40975 c -0.26763,-0.12025 -0.57395,-0.16398 -0.95658,-0.27331 -0.38264,-0.10929 -0.77074,-0.32272 -1.22991,-0.40975 -0.45916,-0.0931 -0.91285,-0.13643 -1.36655,-0.13643 z m 15.44209,0 c -1.03312,0 -1.91318,0.28949 -2.73312,0.81993 -0.81993,0.52477 -1.61253,1.23537 -2.18649,2.04984 -0.57395,0.80354 -0.91286,1.73827 -1.2299,2.73312 -0.31703,1.00032 -0.54662,1.92411 -0.54662,2.86977 0,1.1479 0.17492,2.30674 0.40975,3.41639 0.23483,1.1151 0.57395,2.13182 1.09324,3.00642 0.51383,0.8746 1.20805,1.50869 2.04984,2.04984 0.8418,0.53569 1.79293,0.81993 3.00643,0.81993 0.55755,0 1.12057,-0.0262 1.63987,-0.13643 0.51929,-0.0985 1.08777,-0.27331 1.50321,-0.40976 0.41543,-0.13643 0.67234,-0.2733 0.95658,-0.40975 l 0.54685,-0.2733 -0.68328,-1.91318 -0.68327,0.40974 -0.81995,0.40975 c -0.34983,0.1312 -0.7106,0.18585 -1.09324,0.27332 -0.38263,0.0927 -0.86366,0.13643 -1.2299,0.13643 -0.7598,0 -1.3611,-0.24052 -1.91318,-0.68327 -0.55209,-0.4373 -1.01672,-0.9402 -1.36656,-1.63987 -0.34983,-0.68875 -0.53022,-1.57428 -0.68328,-2.45981 -0.1583,-0.88553 -0.2733,-1.72186 -0.2733,-2.59645 0,-0.71608 0.0822,-1.4267 0.2733,-2.1865 0.1911,-0.76527 0.45917,-1.54694 0.81994,-2.18649 0.36078,-0.63955 0.8418,-1.09871 1.36656,-1.50321 0.52475,-0.39926 1.09871,-0.68328 1.77652,-0.68328 l 0.95659,0.13644 1.09325,0.40974 0.95658,0.40975 0.40975,0.27332 0.68328,-1.91319 -0.40974,-0.40975 -0.9566,-0.2733 c -0.36645,-0.12026 -0.75434,-0.31705 -1.22989,-0.40976 -0.4701,-0.0875 -1.01125,-0.13643 -1.50322,-0.13643 z m 58.35199,0 c -1.03312,0 -1.96238,0.39881 -2.73312,0.95659 -0.78166,0.56849 -1.38295,1.20803 -1.91318,2.04983 -0.52475,0.8418 -0.96205,1.7492 -1.2299,2.73312 -0.26762,0.98939 -0.40975,1.90772 -0.40975,2.73312 0,1.05497 0.20203,2.18649 0.40975,3.27973 0.19111,1.08778 0.4537,2.09357 0.9566,3.00643 0.50835,0.90739 1.1971,1.618 2.04983,2.18649 0.85274,0.57942 1.95144,0.81993 3.27974,0.81993 0.63407,0 1.20804,-0.035 1.77652,-0.13643 0.57395,-0.0985 1.1807,-0.279 1.63987,-0.40976 0.46463,-0.13643 0.76527,-0.2733 1.09325,-0.40975 l 0.68327,-0.2733 -0.68327,-1.91318 -0.68328,0.40974 c -0.28994,0.14738 -0.56302,0.27332 -0.95659,0.40975 -0.39358,0.1312 -0.9074,0.17492 -1.36656,0.27332 -0.46464,0.10363 -0.89099,0.27331 -1.36656,0.27331 -0.78713,0 -1.48682,-0.2462 -2.04983,-0.68328 -0.56302,-0.4373 -1.00579,-0.97845 -1.36656,-1.63987 -0.36078,-0.66688 -0.65048,-1.42122 -0.81993,-2.18649 -0.164,-0.75981 -0.27332,-1.51415 -0.27332,-2.1865 h 10.11252 v -0.81993 c 0,-0.89099 -0.0603,-1.88038 -0.2733,-2.86976 -0.20772,-0.9894 -0.60675,-1.89679 -1.09325,-2.73312 -0.48102,-0.8254 -1.12604,-1.50868 -1.91318,-2.04984 -0.78714,-0.53568 -1.72186,-0.81993 -2.86977,-0.81993 z m -218.37582,0.40975 v 11.61573 c 0,0.74342 0.20771,1.49229 0.40974,2.18649 0.20203,0.69968 0.53022,1.25177 0.95659,1.77653 0.42637,0.53022 0.97845,1.04405 1.63987,1.36656 0.66142,0.32797 1.39935,0.40974 2.32315,0.40974 0.60675,0 1.1315,-0.16398 1.63987,-0.40974 0.50289,-0.25145 0.98392,-0.50837 1.36655,-0.81994 0.38264,-0.31703 0.72155,-0.64501 0.95659,-0.95658 l 0.40976,-0.54663 v 2.32315 h 2.18649 v -16.94531 h -2.32315 v 12.29901 l -0.40975,0.68329 -0.81994,1.09324 c -0.36077,0.36076 -0.7598,0.67234 -1.2299,0.95658 -0.47555,0.28425 -0.96205,0.40975 -1.50322,0.40975 -0.58488,0 -1.0987,-0.17492 -1.5032,-0.40975 -0.40406,-0.23526 -0.7104,-0.44822 -0.95638,-0.81993 -0.24575,-0.3717 -0.42068,-0.88552 -0.54662,-1.36656 -0.12025,-0.48648 -0.2733,-0.98392 -0.2733,-1.5032 v -11.34243 z m 186.53504,0 v 11.61573 c 0,0.74342 0.0713,1.49229 0.2733,2.18649 0.20205,0.69968 0.52477,1.25177 0.9566,1.77653 0.42068,0.53022 0.97299,1.04405 1.63987,1.36656 0.66142,0.32797 1.40482,0.40974 2.32314,0.40974 0.60675,0 1.26817,-0.16398 1.77653,-0.40974 0.50289,-0.25145 0.85274,-0.50837 1.2299,-0.81994 0.38264,-0.31703 0.72154,-0.64501 0.95659,-0.95658 l 0.54662,-0.54663 v 2.32315 h 2.1865 v -16.94531 h -2.32315 v 12.29901 l -0.40975,0.68329 -0.81993,1.09324 c -0.36077,0.36076 -0.75434,0.67234 -1.22991,0.95658 -0.47009,0.28425 -1.09324,0.40975 -1.63986,0.40975 -0.57942,0 -0.96752,-0.17492 -1.36656,-0.40975 -0.40975,-0.23526 -0.8418,-0.44822 -1.09325,-0.81993 -0.24576,-0.3717 -0.42636,-0.88552 -0.54662,-1.36656 -0.12595,-0.48648 -0.13644,-0.98392 -0.13644,-1.5032 v -11.34243 h -2.32314 z m -137.74895,1.50321 c 0.69967,0 1.27909,0.13119 1.77652,0.54662 0.49742,0.42068 0.92925,0.91833 1.2299,1.50322 0.30086,0.58489 0.53569,1.24083 0.68327,1.91317 0.14738,0.67235 0.27332,1.2791 0.27332,1.77654 h -7.78938 c 0,-0.56303 0.1041,-1.25177 0.27331,-1.91319 0.16399,-0.66688 0.36646,-1.19163 0.68329,-1.77652 0.31703,-0.59035 0.73247,-1.10965 1.2299,-1.50322 0.49195,-0.38832 0.98938,-0.54662 1.63987,-0.54662 z m 47.14621,0 c 0.809,0 1.51415,0.34984 2.04984,0.81994 0.54116,0.47009 1.02765,0.96205 1.36656,1.63987 0.32797,0.67234 0.54662,1.44308 0.68327,2.18649 0.1312,0.7434 0.13645,1.35015 0.13645,1.91318 0,0.67234 -0.0176,1.46494 -0.13645,2.32314 -0.12025,0.85273 -0.35552,1.56335 -0.68327,2.32315 -0.32273,0.74887 -0.81448,1.40482 -1.36656,1.91318 -0.55209,0.52476 -1.21897,0.81993 -2.04984,0.81993 -0.85272,0 -1.49774,-0.29517 -2.04984,-0.81993 -0.55208,-0.50836 -1.05497,-1.16431 -1.36655,-1.91318 -0.31704,-0.7598 -0.42068,-1.47042 -0.54662,-2.32315 -0.12595,-0.8582 -0.27332,-1.6508 -0.27332,-2.32314 0,-0.6013 0.12594,-1.30097 0.27332,-2.04984 0.14737,-0.75434 0.34459,-1.38296 0.68327,-2.04983 0.33367,-0.65595 0.8254,-1.3283 1.36657,-1.77653 0.54115,-0.44823 1.12603,-0.68328 1.91317,-0.68328 z m 122.58017,0 c 0.68875,0 1.2791,0.13119 1.77653,0.54662 0.48649,0.42068 0.78167,0.91833 1.09325,1.50322 0.30085,0.58489 0.53568,1.24083 0.68328,1.91317 0.14212,0.67235 0.2733,1.2791 0.2733,1.77654 h -7.78938 c 0,-0.56303 0.1041,-1.25177 0.27332,-1.91319 0.16923,-0.66688 0.3717,-1.19163 0.68328,-1.77652 0.31704,-0.59035 0.73247,-1.10965 1.2299,-1.50322 0.49742,-0.38832 1.12604,-0.54662 1.77652,-0.54662 z m -192.41123,6.69613 v 4.09967 l -0.54662,1.09324 c -0.26763,0.37172 -0.56303,0.77075 -0.9566,1.09325 -0.39357,0.32797 -0.88552,0.46464 -1.36655,0.68329 -0.4865,0.20771 -0.98392,0.40974 -1.50322,0.40974 -0.8254,0 -1.47587,-0.279 -2.04984,-0.81993 -0.57395,-0.54115 -0.81993,-1.24084 -0.81993,-2.18649 0,-0.4701 0.12026,-0.9566 0.40976,-1.36656 0.29517,-0.40451 0.65047,-0.77621 1.09324,-1.09324 0.4373,-0.3118 0.96205,-0.59582 1.50321,-0.81994 0.53569,-0.22958 1.03312,-0.43161 1.50321,-0.54663 l 2.73312,-0.54662 z m -1.50322,21.86492 v 9.29258 l -0.54662,-0.68328 -0.81993,-0.95659 c -0.35553,-0.30085 -0.77074,-0.45916 -1.22991,-0.68328 -0.45916,-0.22432 -0.98392,-0.40975 -1.50321,-0.40975 -0.96752,0 -1.79839,0.32798 -2.59646,0.81994 -0.79807,0.49196 -1.48682,1.09871 -2.04983,1.91318 -0.55756,0.80354 -1.06045,1.73826 -1.36656,2.73312 -0.30611,1.00032 -0.40975,1.99517 -0.40975,3.00642 0,1.09324 0.16924,2.16463 0.40975,3.27974 0.23483,1.10964 0.57395,2.11543 1.09324,3.00642 0.5193,0.88554 1.10418,1.63441 1.91318,2.18649 0.80354,0.5521 1.83666,0.81994 3.00643,0.81994 0.49743,0 1.02218,-0.17492 1.50321,-0.40975 0.4865,-0.23527 0.83634,-0.50289 1.22991,-0.81994 0.39356,-0.31178 0.7106,-0.63955 0.95658,-0.95658 l 0.54663,-0.68328 v 2.4598 h 2.18649 v -23.91474 h -2.32315 z m 175.60259,0 v 23.50477 c 0.20772,0.0489 0.48102,0.18585 0.95659,0.27332 0.4701,0.0927 0.96205,0.18585 1.50321,0.27331 0.54116,0.0927 1.10964,0.0765 1.63987,0.13644 0.52476,0.0547 1.03312,0.13644 1.36656,0.13644 1.2135,0 2.21929,-0.25714 3.14308,-0.81995 0.91832,-0.55755 1.69999,-1.29549 2.32314,-2.18648 0.63409,-0.88553 1.05499,-1.90226 1.36656,-3.00643 0.3118,-1.09871 0.54663,-2.18102 0.54663,-3.27974 0,-0.94018 -0.17492,-2.0061 -0.40975,-3.00642 -0.23483,-0.99485 -0.57942,-1.78199 -1.09325,-2.59645 -0.51929,-0.80355 -1.23537,-1.52509 -2.04984,-2.04984 -0.80353,-0.53023 -1.72185,-0.81993 -2.86977,-0.81993 -0.51382,0 -1.03858,0.17491 -1.5032,0.40974 -0.47557,0.24052 -0.8582,0.50836 -1.2299,0.81994 l -0.9566,0.95658 -0.40975,0.54662 v -9.29258 h -2.32314 z m -92.10595,0.81993 c -0.44823,0 -0.80353,0.24577 -1.09324,0.54662 -0.29519,0.30043 -0.40975,0.66142 -0.40975,1.09325 0,0.42068 0.11506,0.78714 0.40975,1.09324 0.28993,0.30611 0.64501,0.40975 1.09324,0.40975 0.44823,0 0.78714,-0.10409 1.09324,-0.40975 0.30087,-0.3061 0.54663,-0.67235 0.54663,-1.09324 0,-0.43161 -0.24576,-0.79261 -0.54663,-1.09325 -0.3061,-0.30085 -0.64501,-0.54662 -1.09324,-0.54662 z m 5.73955,0 c -0.44824,0 -0.80355,0.24577 -1.09325,0.54662 -0.28994,0.30043 -0.40975,0.66142 -0.40975,1.09325 0,0.42068 0.12025,0.78714 0.40975,1.09324 0.28992,0.30611 0.64501,0.40975 1.09325,0.40975 0.45369,0 0.92925,-0.10409 1.22989,-0.40975 0.30086,-0.3061 0.40976,-0.67235 0.40976,-1.09324 0,-0.43161 -0.10929,-0.79261 -0.40976,-1.09325 -0.30086,-0.30085 -0.7762,-0.54662 -1.22989,-0.54662 z m -132.82936,0.54662 v 22.54819 h 5.73954 c 1.05499,0 1.92957,-0.11506 2.86977,-0.40975 0.94566,-0.28992 1.89132,-0.809 2.59646,-1.36655 0.71061,-0.54662 1.23537,-1.10418 1.63987,-1.91319 0.4045,-0.809 0.54662,-1.72185 0.54662,-2.7331 0,-0.69969 -0.15306,-1.43216 -0.40975,-2.04984 -0.26237,-0.61768 -0.51929,-1.1643 -0.95659,-1.63987 -0.44276,-0.4701 -0.92925,-0.7926 -1.50321,-1.09325 -0.56849,-0.31179 -1.27909,-0.56848 -1.91318,-0.68327 0.4537,-0.13644 1.02219,-0.38263 1.50321,-0.68328 0.4865,-0.30087 0.8254,-0.65049 1.2299,-1.09325 0.4045,-0.4373 0.81993,-0.95659 1.09325,-1.50321 0.26763,-0.55209 0.40975,-1.03312 0.40975,-1.63987 0,-0.96753 -0.17492,-1.88585 -0.54662,-2.59646 -0.3717,-0.70514 -0.88554,-1.31736 -1.50322,-1.77652 -0.61768,-0.45917 -1.36655,-0.72701 -2.18649,-0.95659 -0.81993,-0.22434 -1.5852,-0.40975 -2.4598,-0.40975 h -6.14951 z m 94.83907,0 5.19291,22.54819 h 2.73312 l 4.78295,-19.4051 4.9196,19.4051 h 2.73311 l 5.19293,-22.54819 h -2.45982 l -4.09966,19.40511 -4.78295,-19.40511 h -2.73311 l -4.78296,19.40511 -4.09967,-19.40511 z m 59.58189,1.09325 v 4.50963 h -2.73312 v 1.91318 h 2.73312 v 11.75239 c 0,0.47557 0.14736,0.91833 0.2733,1.36657 0.12027,0.4537 0.26763,0.88552 0.54663,1.2299 0.28424,0.34983 0.62861,0.61768 1.09324,0.81993 0.45917,0.20203 1.10418,0.27331 1.77652,0.27331 l 0.68328,-0.13644 0.81994,-0.13644 0.68328,-0.13643 0.40975,-0.13643 -0.68328,-1.91319 c -0.13644,0.0875 -0.4373,0.15305 -0.81994,0.27332 -0.38263,0.1255 -0.63955,0.2733 -0.95658,0.2733 -0.5193,0 -0.8746,-0.24619 -1.09325,-0.68327 -0.20772,-0.4373 -0.40975,-0.89647 -0.40975,-1.36655 v -11.47909 h 3.41639 v -1.91318 h -3.41639 v -4.50964 h -2.32314 z m 11.61573,0 v 4.50963 h -2.86977 v 1.91318 h 2.86977 v 11.75239 c 0,0.47557 0.009,0.91833 0.13644,1.36657 0.12593,0.4537 0.27331,0.88552 0.54662,1.2299 0.28424,0.34983 0.63408,0.61768 1.09324,0.81993 0.46464,0.20203 1.10419,0.27331 1.77653,0.27331 l 0.68328,-0.13644 0.81993,-0.13644 0.68327,-0.13643 0.40976,-0.13643 -0.68284,-1.91319 c -0.13644,0.0875 -0.30087,0.15305 -0.68328,0.27332 -0.38264,0.1255 -0.77621,0.2733 -1.09324,0.2733 -0.51383,0 -0.88007,-0.24619 -1.09325,-0.68327 -0.21297,-0.4373 -0.27332,-0.89647 -0.27332,-1.36655 v -11.47909 h 3.27974 v -1.91318 h -3.27974 v -4.50964 h -2.32314 z m -163.57689,0.95659 h 3.68971 c 1.25723,0 2.21929,0.27856 3.00642,0.95659 0.78167,0.66688 1.2299,1.59067 1.2299,2.73311 0,0.58489 -0.16398,1.14244 -0.40974,1.63987 -0.24577,0.49196 -0.55209,1.01125 -0.95659,1.36656 -0.4045,0.36077 -0.85273,0.61768 -1.36657,0.81993 -0.51382,0.20203 -1.07684,0.27332 -1.63985,0.27332 h -3.55306 v -7.78938 z m 20.3617,3.14307 c -0.58488,0 -1.20257,0.13645 -1.77652,0.27332 -0.57395,0.13644 -1.03312,0.23483 -1.50321,0.40975 -0.47009,0.18016 -0.89099,0.38832 -1.22991,0.54663 l -0.68327,0.2733 0.68327,1.91318 0.68329,-0.40974 c 0.32272,-0.17492 0.68873,-0.37739 1.09323,-0.54663 0.40452,-0.16967 0.78168,-0.27331 1.22992,-0.40975 0.45369,-0.13643 0.87459,-0.27331 1.2299,-0.27331 1.2135,0 2.14275,0.47009 2.73311,1.22991 0.59581,0.74887 0.81993,1.6344 0.81993,2.7331 v 1.09325 l -3.27974,0.81994 c -0.65595,0.13643 -1.2955,0.3717 -2.04983,0.68327 -0.74887,0.31705 -1.41029,0.64502 -2.04984,1.09325 -0.63955,0.44823 -1.2299,1.03312 -1.63987,1.63987 -0.42068,0.60675 -0.68327,1.19164 -0.68327,1.91318 0,1.50321 0.55209,2.72218 1.50321,3.55305 0.95659,0.83086 2.20835,1.2299 3.6897,1.2299 0.62862,0 1.22444,-0.17492 1.77652,-0.40975 0.5521,-0.23527 0.9402,-0.50289 1.36657,-0.81994 0.42636,-0.3061 0.83633,-0.63955 1.09324,-0.95658 l 0.40974,-0.68328 v 2.4598 h 2.1865 v -11.75239 c 0,-1.84212 -0.48103,-3.14308 -1.50321,-4.09967 -1.02219,-0.95112 -2.38874,-1.50322 -4.09968,-1.50322 z m 33.61731,0 c -1.03312,0 -1.96238,0.26239 -2.73311,0.81994 -0.77621,0.56303 -1.52508,1.3447 -2.04984,2.1865 -0.52476,0.8418 -0.8254,1.73825 -1.09325,2.73311 -0.26763,0.98938 -0.40974,1.90225 -0.40974,2.73311 0,1.05499 0.0713,2.04984 0.27331,3.14309 0.20203,1.08777 0.59035,2.09902 1.09324,3.00642 0.5029,0.91286 1.1971,1.74919 2.04984,2.32314 0.85273,0.5685 1.95144,0.81994 3.27973,0.81994 0.62862,0 1.20257,-0.0394 1.77652,-0.13644 0.57397,-0.1041 1.04406,-0.27331 1.50322,-0.40974 0.45917,-0.1312 0.90193,-0.279 1.2299,-0.40975 l 0.68329,-0.27332 -0.68329,-1.91318 -0.81993,0.40976 c -0.29517,0.15305 -0.56302,0.27855 -0.95659,0.40975 -0.39357,0.14212 -0.77073,0.16398 -1.2299,0.2733 -0.45917,0.0984 -1.02765,0.13644 -1.50322,0.13644 -0.78713,0 -1.35562,-0.10929 -1.91317,-0.54663 -0.56303,-0.4373 -1.14791,-1.10963 -1.50322,-1.77652 -0.36077,-0.65595 -0.51383,-1.28456 -0.68328,-2.04983 -0.16923,-0.75981 -0.2733,-1.51414 -0.2733,-2.18649 h 10.11251 v -0.81994 c 0,-0.90193 -0.19678,-1.88038 -0.40974,-2.86977 -0.21297,-0.98938 -0.4701,-1.89678 -0.95659,-2.73312 -0.48103,-0.83085 -1.12605,-1.50867 -1.91318,-2.04983 -0.78714,-0.53569 -1.72734,-0.81994 -2.86977,-0.81994 z m 17.76524,0 c -0.58488,0 -1.12604,0.15831 -1.63987,0.40976 -0.51382,0.24575 -1.0987,0.51382 -1.5032,0.81994 -0.39926,0.31703 -0.70515,0.65047 -0.9566,0.95658 l -0.40975,0.54662 v -2.32314 h -2.18649 v 16.9453 h 2.32314 v -12.16235 l 0.40976,-0.95659 0.81994,-0.9566 c 0.3717,-0.34983 0.88005,-0.7106 1.36655,-0.95658 0.48102,-0.24052 0.98392,-0.40975 1.50321,-0.40975 0.54116,0 0.95113,0.16923 1.36656,0.40975 0.41543,0.24576 0.8254,0.56301 1.09324,0.95658 0.27331,0.39358 0.39925,0.88553 0.54663,1.36657 0.14736,0.48648 0.2733,0.91832 0.2733,1.36655 v 11.34242 h 2.32315 v -11.61573 c 0,-0.69968 -0.19109,-1.36656 -0.40974,-2.04984 -0.2239,-0.68874 -0.51383,-1.37749 -0.95659,-1.91317 -0.43205,-0.54117 -0.96775,-0.90194 -1.64009,-1.22991 -0.67781,-0.32272 -1.43215,-0.54663 -2.32315,-0.54663 z m 73.38412,0 c -0.58489,0 -1.18071,0.15307 -1.63987,0.40976 -0.45917,0.24051 -0.89099,0.49742 -1.2299,0.81994 l -0.68329,0.95658 -0.40974,0.54662 v -2.32314 h -2.18649 v 16.9453 h 2.32315 v -12.16235 l 0.2733,-0.68329 0.81994,-1.09324 c 0.3118,-0.33891 0.69421,-0.55756 1.09325,-0.81993 0.40974,-0.25145 0.78145,-0.40975 1.22968,-0.40975 l 0.68328,0.13644 0.68327,0.27331 0.68329,-2.04984 -0.68329,-0.40974 -0.95658,-0.13645 z m 34.02727,0 c -1.02765,0 -1.95691,0.26239 -2.73311,0.81994 -0.77621,0.56303 -1.38296,1.3447 -1.91318,2.1865 -0.52477,0.8418 -0.96206,1.73825 -1.22991,2.73311 -0.27331,0.98938 -0.40974,1.90225 -0.40974,2.73311 0,1.05499 0.20771,2.04984 0.40974,3.14309 0.20772,1.08777 0.4537,2.09902 0.95659,3.00642 0.5029,0.91286 1.1971,1.74919 2.04984,2.32314 0.85273,0.5685 1.95145,0.81994 3.27973,0.81994 0.62862,0 1.20257,-0.0394 1.77653,-0.13644 0.57396,-0.1041 1.17524,-0.27331 1.63987,-0.40974 0.45369,-0.1312 0.77074,-0.279 1.09324,-0.40975 l 0.68329,-0.27332 -0.68329,-1.91318 -0.68328,0.40976 c -0.29517,0.15305 -0.69967,0.27855 -1.09324,0.40975 -0.38832,0.14212 -0.77073,0.16398 -1.2299,0.2733 -0.45916,0.0984 -0.891,0.13644 -1.36655,0.13644 -0.78168,0 -1.48682,-0.10929 -2.04984,-0.54663 -0.56303,-0.4373 -1.00033,-1.10963 -1.36656,-1.77652 -0.36077,-0.65595 -0.65049,-1.28456 -0.81994,-2.04983 -0.16923,-0.75981 -0.2733,-1.51414 -0.2733,-2.18649 h 10.11252 v -0.81994 c 0,-0.90193 -0.0656,-1.88038 -0.27332,-2.86977 -0.21865,-0.98938 -0.60675,-1.89678 -1.09324,-2.73312 -0.48103,-0.83085 -1.12605,-1.50867 -1.91318,-2.04983 -0.78714,-0.53569 -1.72187,-0.81994 -2.86977,-0.81994 z m 17.35527,0 c -0.62861,0 -1.13697,0.15831 -1.63986,0.40976 -0.50836,0.24575 -1.01672,0.49742 -1.36656,0.81994 l -0.81993,0.95658 -0.40975,0.54662 v -2.32314 h -2.1865 v 16.9453 h 2.32315 v -12.16235 l 0.40975,-0.95659 0.68328,-0.9566 c 0.34459,-0.34983 0.7762,-0.7106 1.2299,-0.95658 0.45916,-0.24052 0.96206,-0.40975 1.50321,-0.40975 0.60675,0 1.10965,0.17492 1.50322,0.40975 0.39356,0.23483 0.71608,0.57395 0.95658,0.95658 0.23483,0.38265 0.44824,0.74342 0.54663,1.2299 0.0984,0.48104 0.13644,1.0058 0.13644,1.50322 v 11.34242 h 2.32315 V 598.4806 l 0.2733,-0.95659 0.81994,-0.95658 c 0.32798,-0.30087 0.76528,-0.4701 1.2299,-0.68328 0.45916,-0.21341 0.91833,-0.40975 1.50321,-0.40975 0.56302,0 1.09871,0.17492 1.50321,0.40975 0.4045,0.23483 0.71608,0.57395 0.9566,0.95658 0.22958,0.38265 0.42636,0.74342 0.54662,1.2299 0.1041,0.48104 0.13644,1.0058 0.13644,1.50322 v 11.34242 h 2.32314 v -11.61573 c 0,-0.69968 -0.1041,-1.36656 -0.2733,-2.04984 -0.164,-0.68874 -0.42069,-1.37749 -0.81995,-1.91317 -0.4045,-0.54117 -0.97845,-0.90194 -1.63987,-1.22991 -0.6614,-0.32272 -1.49227,-0.54663 -2.45979,-0.54663 -0.67235,0 -1.2299,0.15831 -1.77653,0.40976 -0.55209,0.24577 -1.10417,0.51382 -1.50321,0.81994 -0.39357,0.31703 -0.58488,0.65047 -0.81993,0.95658 l -0.54663,0.54662 -0.40975,-0.68327 -0.81993,-0.9566 c -0.35553,-0.30085 -0.81447,-0.45915 -1.36656,-0.68327 -0.55209,-0.22433 -1.21897,-0.40976 -2.04984,-0.40976 z m 42.77324,0 c -1.03312,0 -1.96237,0.26239 -2.73311,0.81994 -0.77621,0.56303 -1.38296,1.3447 -1.91318,2.1865 -0.52477,0.8418 -0.96752,1.73825 -1.2299,2.73311 -0.27899,0.98938 -0.40975,1.90225 -0.40975,2.73311 0,1.05499 0.20203,2.04984 0.40975,3.14309 0.20203,1.08777 0.4537,2.09902 0.95658,3.00642 0.50837,0.91286 1.19712,1.74919 2.04984,2.32314 0.85273,0.5685 1.94598,0.81994 3.27974,0.81994 0.62315,0 1.1971,-0.0394 1.77652,-0.13644 0.56849,-0.1041 1.18071,-0.27331 1.63987,-0.40974 0.46463,-0.1312 0.76528,-0.279 1.09325,-0.40975 l 0.68328,-0.27332 -0.68328,-1.91318 -0.68329,0.40976 c -0.29517,0.15305 -0.56848,0.27855 -0.95658,0.40975 -0.39357,0.14212 -0.90739,0.16398 -1.36656,0.2733 -0.4537,0.0984 -0.89646,0.13644 -1.36655,0.13644 -0.78168,0 -1.49228,-0.10929 -2.04984,-0.54663 -0.56849,-0.4373 -1.00033,-1.10963 -1.36656,-1.77652 -0.35552,-0.65595 -0.65047,-1.28456 -0.81994,-2.04983 -0.16923,-0.75981 -0.2733,-1.51414 -0.2733,-2.18649 h 10.11252 v -0.81994 c 0,-0.90193 -0.0547,-1.88038 -0.27332,-2.86977 -0.21296,-0.98938 -0.61221,-1.89678 -1.09324,-2.73312 -0.48103,-0.83085 -0.98938,-1.50867 -1.77653,-2.04983 -0.78167,-0.53569 -1.86397,-0.81994 -3.00642,-0.81994 z m 17.08196,0 c -0.58488,0 -1.1807,0.15307 -1.63987,0.40976 -0.46462,0.24051 -0.7598,0.49742 -1.09324,0.81994 l -0.81993,0.95658 -0.40975,0.54662 v -2.32314 h -2.1865 v 16.9453 h 2.32315 v -12.16235 l 0.40975,-0.68329 0.68328,-1.09324 c 0.31179,-0.33891 0.68874,-0.55756 1.09324,-0.81993 0.4045,-0.25145 0.78168,-0.40975 1.2299,-0.40975 l 0.81994,0.13644 0.54663,0.27331 0.68327,-2.04984 -0.68327,-0.40974 -0.9566,-0.13645 z m 10.11253,0 c -0.80354,0 -1.48135,0.21298 -2.1865,0.54663 -0.70514,0.33891 -1.38295,0.81447 -1.91317,1.36656 -0.52477,0.55755 -0.9238,1.08231 -1.2299,1.77652 -0.30612,0.69968 -0.40975,1.46495 -0.40975,2.1865 0,0.96752 0.0262,1.77652 0.2733,2.4598 0.24577,0.68874 0.59036,1.31189 0.9566,1.77652 0.3717,0.45917 0.8254,0.69967 1.2299,0.95659 0.4045,0.2567 0.7762,0.56849 1.09324,0.68328 l -0.68327,0.13643 -0.81994,0.54662 -0.54663,0.68329 -0.2733,0.81993 c 0,0.4045 0.0875,0.79807 0.2733,1.09325 l 0.68329,0.68327 0.68328,0.40976 0.68327,0.13643 c -0.31179,0.0218 -0.73794,0.21865 -1.2299,0.40975 -0.49742,0.18585 -0.89646,0.34984 -1.36656,0.68328 -0.47008,0.33891 -0.88553,0.85819 -1.2299,1.36656 -0.34983,0.50288 -0.54662,0.98938 -0.54662,1.63987 0,0.67234 0.0765,1.34468 0.40975,1.91318 0.3389,0.57395 0.92926,1.08231 1.50322,1.50321 0.59035,0.41543 1.2299,0.71608 2.04982,0.95658 0.82542,0.24577 1.65627,0.40976 2.59647,0.40976 1.06045,0 2.00064,-0.10929 2.86977,-0.40976 0.85819,-0.30085 1.69999,-0.73793 2.32314,-1.2299 0.61769,-0.49195 1.02219,-1.05497 1.36657,-1.63987 0.33365,-0.58488 0.54662,-1.19163 0.54662,-1.77652 0,-0.76527 -0.16399,-1.45948 -0.54662,-2.04984 -0.38265,-0.59581 -0.9894,-1.08777 -1.63987,-1.5032 -0.65595,-0.41544 -1.33377,-0.73795 -2.1865,-0.9566 -0.85274,-0.20772 -1.80932,-0.2733 -2.73311,-0.2733 -0.71608,0 -1.3119,-0.22959 -1.77652,-0.54663 -0.4537,-0.31704 -0.68328,-0.60129 -0.68328,-1.09324 l 0.2733,-0.68328 0.68328,-0.40975 0.81994,-0.40975 0.68328,-0.13643 c 0.83087,0 1.60707,-0.0875 2.32314,-0.40975 0.71608,-0.32798 1.40482,-0.80355 1.91318,-1.36657 0.52476,-0.56301 0.94019,-1.29548 1.22991,-2.04983 0.28992,-0.75434 0.40974,-1.46495 0.40974,-2.32314 0,-0.4701 -0.0218,-0.95113 -0.13643,-1.36657 -0.10929,-0.42112 -0.26238,-0.76527 -0.40976,-1.09324 l -0.40973,-0.81993 -0.40976,-0.54663 h 2.73312 v -1.63987 h -4.78296 c -0.20203,-0.0713 -0.49742,-0.17492 -0.95659,-0.2733 -0.46463,-0.10929 -0.98391,-0.13645 -1.5032,-0.13645 z m -144.85506,0.40976 v 11.61574 c 0,0.7434 0.0713,1.49227 0.27332,2.18649 0.20203,0.69967 0.53022,1.25176 0.95658,1.77652 0.42637,0.53023 0.98392,0.90193 1.63987,1.2299 0.66688,0.32797 1.39389,0.54662 2.32315,0.54662 0.60129,0 1.13697,-0.16399 1.63987,-0.40975 0.50289,-0.24619 0.98392,-0.50289 1.36656,-0.81993 0.38263,-0.31179 0.71608,-0.63954 0.95658,-0.95659 l 0.40976,-0.68328 v 2.4598 h 2.18649 v -16.94531 h -2.32315 v 12.16237 l -0.27332,0.81993 -0.95658,1.09324 c -0.35509,0.36078 -0.75959,0.67782 -1.22969,0.9566 -0.47008,0.28423 -0.96752,0.40974 -1.5032,0.40974 -0.5849,0 -1.09872,-0.17491 -1.50322,-0.40974 -0.4045,-0.23527 -0.70515,-0.44824 -0.95659,-0.81994 -0.24576,-0.3717 -0.42636,-0.88553 -0.54663,-1.36656 -0.12593,-0.48649 -0.13643,-0.98939 -0.13643,-1.50321 v -11.34243 h -2.32315 z m -67.64457,1.36656 c 0.69421,0 1.2791,0.26238 1.77653,0.68328 0.49195,0.41542 0.92379,0.92379 1.22989,1.5032 0.30087,0.58489 0.5357,1.24084 0.68328,1.91319 0.14212,0.67234 0.13643,1.28455 0.13643,1.77652 h -7.78936 c 0,-0.55755 0.10409,-1.2463 0.2733,-1.91318 0.16924,-0.65594 0.36647,-1.19164 0.68328,-1.77653 0.31179,-0.59035 0.73247,-1.10963 1.22991,-1.5032 0.49196,-0.39358 1.12603,-0.68328 1.77652,-0.68328 z m 125.17663,0 c 0.69421,0 1.28456,0.26238 1.77652,0.68328 0.49743,0.41542 0.9238,0.92379 1.2299,1.5032 0.30087,0.58489 0.5357,1.24084 0.68328,1.91319 0.14212,0.67234 0.27332,1.28455 0.27332,1.77652 h -7.78938 c 0,-0.55755 0.10929,-1.2463 0.2733,-1.91318 0.16925,-0.65594 0.37172,-1.19164 0.68329,-1.77653 0.31704,-0.59035 0.73248,-1.10963 1.2299,-1.5032 0.49196,-0.39358 0.98392,-0.68328 1.63987,-0.68328 z m 60.26516,0 c 0.69968,0 1.2791,0.26238 1.77653,0.68328 0.49742,0.41542 0.78714,0.92379 1.09324,1.5032 0.30087,0.58489 0.5357,1.24084 0.68328,1.91319 0.14737,0.67234 0.27332,1.28455 0.27332,1.77652 h -7.78938 c 0,-0.55755 0.10929,-1.2463 0.27332,-1.91318 0.16923,-0.65594 0.3717,-1.19164 0.68327,-1.77653 0.31705,-0.59035 0.73248,-1.10963 1.2299,-1.5032 0.49197,-0.39358 1.12605,-0.68328 1.77652,-0.68328 z m 27.05784,0 c 1.08232,0 1.98424,0.34415 2.59646,1.09325 0.62315,0.75433 0.95658,1.77105 0.95658,3.00642 0,0.51382 -0.15305,0.97298 -0.2733,1.5032 -0.12595,0.52477 -0.27332,1.07139 -0.54663,1.50322 -0.28424,0.42068 -0.65594,0.81994 -1.09324,1.09325 -0.4373,0.28424 -1.01125,0.40975 -1.63987,0.40975 -0.64502,0 -1.1971,-0.17492 -1.63987,-0.40975 -0.4373,-0.23527 -0.68328,-0.5521 -0.9566,-0.9566 -0.26761,-0.4045 -0.56302,-0.81446 -0.68327,-1.36655 -0.12594,-0.54662 -0.13644,-1.16977 -0.13644,-1.77652 0,-0.54116 0.11495,-1.01125 0.27331,-1.50322 0.15306,-0.49742 0.38832,-0.98392 0.68329,-1.36655 0.29517,-0.38264 0.6614,-0.73248 1.09324,-0.9566 0.43729,-0.22433 0.83086,-0.2733 1.36656,-0.2733 z m -229.17163,0.13643 c 0.54116,0 1.04952,0.12551 1.50322,0.40975 0.44822,0.29518 0.7598,0.71061 1.09324,1.09325 0.33891,0.38263 0.61768,0.71607 0.81993,1.09325 l 0.40975,0.81993 v 7.24275 l -0.40975,0.81993 -0.81993,1.09325 c -0.3389,0.36077 -0.76527,0.68874 -1.2299,0.95659 -0.45916,0.27331 -0.86913,0.40975 -1.36656,0.40975 -0.78713,0 -1.50868,-0.21341 -2.04983,-0.68329 -0.53569,-0.47008 -0.891,-1.05497 -1.22991,-1.77652 -0.33365,-0.71607 -0.67781,-1.5852 -0.81993,-2.4598 -0.14737,-0.8746 -0.13643,-1.67267 -0.13643,-2.4598 0,-0.90193 0.0713,-1.80932 0.2733,-2.59646 0.20203,-0.7926 0.4537,-1.45948 0.81994,-2.04984 0.37171,-0.60128 0.84726,-1.03311 1.36656,-1.36655 0.51382,-0.3446 1.12604,-0.54663 1.77652,-0.54663 z m 185.57846,0 c 0.73794,0 1.38842,0.29518 1.91317,0.68328 0.52477,0.39357 1.02219,0.86913 1.36657,1.50322 0.34983,0.62314 0.51382,1.27362 0.68327,2.04982 0.16923,0.77075 0.27331,1.58522 0.27331,2.32315 0,0.78714 -0.0494,1.58521 -0.27331,2.45981 -0.21865,0.8746 -0.66688,1.74919 -1.09324,2.4598 -0.42637,0.72701 -0.891,1.30642 -1.50322,1.77652 -0.62315,0.47557 -1.25723,0.68329 -2.04983,0.68329 l -0.81994,-0.13645 h -0.95658 l -0.81994,-0.13643 -0.54663,-0.13643 v -10.24918 l 0.40975,-0.81994 0.81993,-1.09325 c 0.36078,-0.34459 0.79807,-0.68327 1.22991,-0.95659 0.44276,-0.26806 0.91833,-0.40974 1.36656,-0.40974 z m -140.75539,4.09967 v 2.18649 h 7.1061 v -2.18649 z m -82.13008,0.54662 h 3.68971 c 1.41575,0 2.5254,0.33891 3.41639,1.09325 0.88553,0.74887 1.36655,1.84212 1.36655,3.14309 0,0.67233 -0.16398,1.2135 -0.40974,1.77652 -0.24577,0.56302 -0.65048,1.10418 -1.09324,1.50321 -0.4373,0.4045 -0.91834,0.73247 -1.50322,0.95659 -0.58489,0.2239 -1.12604,0.27332 -1.77652,0.27332 h -3.68971 v -8.74598 z m 23.64144,2.04984 v 4.09967 l -0.54662,1.09325 c -0.26763,0.37695 -0.56303,0.62862 -0.9566,0.95659 -0.39356,0.32229 -0.88552,0.60675 -1.36655,0.81993 -0.4865,0.21296 -0.98392,0.40975 -1.50322,0.40975 -0.83085,0 -1.47587,-0.27899 -2.04982,-0.81994 -0.57396,-0.53568 -0.81994,-1.37748 -0.81994,-2.32314 0,-0.47556 0.12026,-0.83087 0.40975,-1.2299 0.29517,-0.4045 0.65594,-0.78167 1.09324,-1.09325 0.44277,-0.31704 0.96206,-0.59035 1.50322,-0.81993 0.53568,-0.21865 1.03311,-0.43162 1.5032,-0.54662 l 2.73312,-0.54662 z m 242.8372,8.47266 c 1.35015,0 2.53086,0.25145 3.41639,0.81993 0.891,0.57395 1.36655,1.30642 1.36655,2.18649 0,0.39881 -0.17491,0.8418 -0.40974,1.2299 -0.24052,0.39357 -0.53569,0.7926 -0.95659,1.09325 -0.43161,0.3061 -0.94019,0.48649 -1.50322,0.68327 -0.55755,0.18585 -1.23537,0.27332 -1.91317,0.27332 -0.64502,0 -1.2299,-0.0931 -1.77653,-0.27332 -0.53569,-0.17491 -0.98392,-0.38263 -1.36656,-0.68327 -0.37738,-0.30611 -0.60675,-0.69968 -0.81993,-1.09325 -0.20772,-0.38832 -0.40975,-0.809 -0.40975,-1.2299 0,-0.43161 0.16399,-0.86367 0.40975,-1.2299 0.24576,-0.3717 0.55209,-0.68874 0.95659,-0.95659 0.39925,-0.26807 0.8418,-0.38832 1.36656,-0.54663 0.53022,-0.1583 1.08231,-0.2733 1.63987,-0.2733 z"
         id="path238"
         style="fill:#5d6971;fill-opacity:1;fill-rule:nonzero;stroke:none" />
      <path
         d="m 362.64821,441.19032 c -0.97298,0 -1.74372,0.1911 -2.32314,0.81994 -0.57395,0.61221 -0.81993,1.48135 -0.81993,2.4598 v 81.99343 c 0,0.97298 0.24576,1.69999 0.81993,2.32314 0.56849,0.61222 1.35016,0.9566 2.32314,0.9566 h 22.27489 c 6.11124,0 11.572,-1.10965 16.53534,-3.4164 4.97427,-2.29581 9.25978,-5.58648 12.70898,-9.70256 3.45466,-4.12153 6.15497,-8.95368 8.06269,-14.62215 1.90225,-5.66302 2.73311,-11.80707 2.73311,-18.44853 0,-6.36816 -0.91286,-12.18422 -2.86977,-17.35528 -1.94598,-5.18197 -4.69549,-9.66975 -8.19934,-13.39225 -3.49292,-3.72251 -7.74018,-6.57588 -12.70899,-8.60931 -4.95786,-2.03891 -10.3749,-3.00643 -16.39868,-3.00643 z m 80.62688,0 c -0.96752,0 -1.74374,0.1911 -2.32315,0.81994 -0.56849,0.61221 -0.95659,1.48135 -0.95659,2.4598 v 81.99343 c 0,0.97298 0.38832,1.69999 0.95659,2.32314 0.57941,0.61222 1.35563,0.9566 2.32315,0.9566 h 9.15593 c 0.96752,0 1.71639,-0.33892 2.32315,-0.9566 0.61767,-0.61768 0.95659,-1.35016 0.95659,-2.32314 V 489.9764 h 30.61088 v 36.48709 c 0,0.97298 0.38832,1.70546 0.95658,2.32314 0.56849,0.61768 1.21351,0.9566 2.18649,0.9566 h 9.15593 c 0.97847,0 1.84212,-0.3446 2.45981,-0.9566 0.61768,-0.62315 0.95658,-1.35016 0.95658,-2.32314 v -81.99343 c 0,-0.97845 -0.3389,-1.84759 -0.95658,-2.4598 -0.61769,-0.62862 -1.48134,-0.81994 -2.45981,-0.81994 h -9.15593 c -0.97298,0 -1.618,0.1911 -2.18649,0.81994 -0.56848,0.61221 -0.95658,1.48135 -0.95658,2.4598 v 32.52405 h -30.61088 v -32.52405 c 0,-0.97845 -0.33892,-1.84759 -0.95659,-2.4598 -0.60676,-0.62862 -1.35563,-0.81994 -2.32315,-0.81994 z m -68.19121,12.29902 h 9.97587 c 3.72797,0 7.04597,0.7762 9.97588,2.32314 2.92442,1.55787 5.43889,3.62957 7.51606,6.28616 2.08262,2.65659 3.71156,5.88713 4.78294,9.5659 1.06045,3.67877 1.50322,7.63633 1.50322,11.88905 0,4.96334 -0.48103,9.39645 -1.63987,13.52892 -1.15338,4.11059 -2.88617,7.77843 -5.05626,10.7958 -2.17557,3.01189 -4.77202,5.28584 -7.78938,6.96943 -3.02282,1.6836 -6.39549,2.59647 -10.11253,2.59647 h -9.15593 z"
         id="path242"
         style="fill:#e2001a;fill-opacity:1;fill-rule:nonzero;stroke:none" />
    </g>
    <path
       style="fill:#000000;fill-opacity:1;stroke:#8e8e8e;stroke-width:0.842832;stroke-dasharray:none;stroke-opacity:1"
       d="m 217.72006,25.475576 39.38128,39.400059"
       id="path1" />
    <path
       style="fill:#000000;fill-opacity:1;stroke:#8e8e8e;stroke-width:0.842832;stroke-dasharray:none;stroke-opacity:1"
       d="M 256.99222,25.58292 217.61094,64.982979"
       id="path1-6" />
  </g>
</svg>
