<?xml version="1.0" encoding="UTF-8" standalone="no"?>
<svg
   sodipodi:docname="vsv_logo.svg"
   inkscape:version="1.3.2 (091e20e, 2023-11-25, custom)"
   inkscape:export-ydpi="300.16974"
   inkscape:export-xdpi="300.16974"
   inkscape:export-filename="C:\Users\marce\Desktop\vsv_logo.png"
   id="svg8"
   version="1.1"
   viewBox="0 0 170.40437 78.086998"
   height="78.086998mm"
   width="170.40437mm"
   xmlns:inkscape="http://www.inkscape.org/namespaces/inkscape"
   xmlns:sodipodi="http://sodipodi.sourceforge.net/DTD/sodipodi-0.dtd"
   xmlns="http://www.w3.org/2000/svg"
   xmlns:svg="http://www.w3.org/2000/svg"
   xmlns:rdf="http://www.w3.org/1999/02/22-rdf-syntax-ns#"
   xmlns:cc="http://creativecommons.org/ns#"
   xmlns:dc="http://purl.org/dc/elements/1.1/">
  <defs
     id="defs2" />
  <sodipodi:namedview
     inkscape:window-maximized="1"
     inkscape:window-y="-9"
     inkscape:window-x="-9"
     inkscape:window-height="991"
     inkscape:window-width="1920"
     fit-margin-bottom="0"
     fit-margin-right="0"
     fit-margin-left="0"
     fit-margin-top="0"
     showgrid="false"
     inkscape:document-rotation="0"
     inkscape:current-layer="layer1"
     inkscape:document-units="mm"
     inkscape:cy="176.27162"
     inkscape:cx="338.90618"
     inkscape:zoom="0.98994949"
     inkscape:pageshadow="2"
     inkscape:pageopacity="0.0"
     borderopacity="1.0"
     bordercolor="#666666"
     pagecolor="#ffffff"
     id="base"
     inkscape:showpageshadow="0"
     inkscape:pagecheckerboard="1"
     inkscape:deskcolor="#505050" />
  <metadata
     id="metadata5">
    <rdf:RDF>
      <cc:Work
         rdf:about="">
        <dc:format>image/svg+xml</dc:format>
        <dc:type
           rdf:resource="http://purl.org/dc/dcmitype/StillImage" />
      </cc:Work>
    </rdf:RDF>
  </metadata>
  <g
     transform="translate(-16.851383,-8.9117216)"
     id="layer1"
     inkscape:groupmode="layer"
     inkscape:label="Ebene 1">
    <g
       transform="matrix(0.03527778,0,0,-0.03527778,16.851383,80.290668)"
       id="g843">
      <path
         id="path845"
         style="fill:#f1471d;fill-opacity:1;fill-rule:evenodd;stroke:none"
         d="m 3584.99,1313.58 303.5,559.75 h 345.64 l -504.6,-903.412 -272.49,-1.117 -129.66,0.535 c 61.01,131.074 88.37,279.554 14.5,412.284 -51.61,92.73 -137.93,166.57 -241.56,201.13 l -155.57,290.59 348.85,-0.01 z M 311.563,365.398 480.16,729.512 H 619.691 L 379.801,217.301 H 249.477 L 0,729.512 H 146.77 Z M 905.797,739.301 C 1069.5,739.211 1185.57,615.262 1188.19,474.809 1190.81,334.371 1079.4,201.949 903.551,206.852 727.688,211.73 627.301,334.07 628.391,472.711 c 1.082,138.648 113.695,266.668 277.406,266.59 z M 765.598,473.031 c -1.336,-66.39 48.699,-143.359 142.644,-145.992 93.938,-2.617 143.278,66.039 143.278,145.012 0,78.988 -53.336,144.969 -143.278,145.64 -89.945,0.661 -141.312,-78.293 -142.644,-144.66 z m 737.242,-255.73 c -33.73,0 -67.62,2.211 -100.83,7.429 -35.34,5.532 -64.73,23.04 -89.1,45.961 -22.13,20.77 -37.64,45.028 -43.84,73.258 -5.9,26.762 -8.74,54.02 -8.74,81.313 v 304.25 H 1391 V 470.051 c 0,-32.231 2.14,-74.571 16.69,-104.539 15.04,-30.934 73.62,-33.774 105.28,-33.621 l 145.53,0.73 v -115.32 z m 360.49,281.519 212.13,230.692 h 157.81 L 2002.78,478.941 2235.35,217.301 H 2068.3 l -204.97,238.23 v -238.23 h -130.64 v 512.211 h 130.64 z m 759.87,-141.629 138.63,372.321 h 183.64 V 217.301 h -128.43 l -0.58,333.398 -123.01,-333.398 h -134.23 l -125.96,334.168 0.05,-334.168 h -133.16 v 512.211 h 184.43 z m 804.85,-36.781 -211.91,0.449 -49.27,-103.558 h -154.62 l 242.27,512.211 h 133.47 l 244.69,-512.211 h -154.74 z m -111.02,258.762 -72.82,-159.152 143.83,0.019 z m 760.65,-193.684 -5.23,344.024 h 133.08 V 217.301 h -146.81 l -231.46,362.871 5.24,-362.871 h -133.85 v 512.211 h 159.31 z m 624.83,0 -5.24,344.024 h 133.09 V 217.301 h -146.82 l -231.44,362.871 5.23,-362.871 h -133.85 v 512.211 h 159.31 z m -3458.61,928.102 105.79,197.97 c 113.78,-11.67 221.67,-21.93 323.67,-31.31 L 1388.44,969.922 H 1100.8 L 596.207,1873.32 H 941.82 Z m 120.94,225.8 182.59,333.93 h 345.61 l -183.03,-327.68 c -120.44,-2.77 -236.66,-5.25 -345.17,-6.25 z m 1227.18,-250.45 h -529.08 c -166.19,0 -257.76,90.29 -268.53,179.17 6.02,-0.47 63.51,-6.08 69.53,-6.56 125.6,-9.95 258.23,-22.42 382.45,-37.86 128.79,-16.01 244.86,-32.85 334.87,-54.78 110.8,-27 178.51,-71.55 192.05,-126.36 7.19,-29.15 -0.88,-53.32 -17.23,-80.37 -91.34,-151.3 -502.03,-175.754 -639.58,-192.262 h -204.36 l -442.4,0.824 125.13,231.678 1009.3,-0.83 c 43.05,3.52 48.68,13.91 54.62,33.68 8.35,27.8 -17.43,54.15 -66.77,53.67 z m -376.06,584.38 h 641.42 l 142.08,-258.54 c -131.81,22.82 -302.64,25.15 -480.24,26.68 h -249.21 c -26.1,-0.48 -56.27,-4.55 -63.64,-30.01 -5.76,-19.85 4.34,-31.61 22.29,-34.04 196.71,0.79 389.13,-0.32 567.95,-12.39 43.93,-2.91 77.13,-6.41 113.01,-10.38 188.2,-20.85 331.49,-114.34 381.1,-241.28 36.63,-93.69 26.2,-220.84 -45.21,-343.442 h -41.4 c 72.79,105.292 87.93,215.652 65.75,300.682 -37.06,142.13 -199.57,244.08 -389.72,260.86 -295.96,26.04 -591.4,24.4 -919.28,19.11 -39.44,-0.64 -122.18,-1.32 -162.62,-2.06 38.38,202.16 195.54,322.85 417.72,324.81" />
      <path
         id="path847"
         style="fill:#706d6e;fill-opacity:1;fill-rule:evenodd;stroke:none"
         d="m 1355.43,1526.71 52.33,-5.47 c 151.96,-14.76 556.21,-43.92 889.48,-83.14 104.1,-12.25 199.42,-26.01 278.31,-44.43 57.97,-13.51 127.76,-36.91 174.37,-75.08 35.72,-29.25 61.16,-67.33 47.13,-125.69 -31.53,-131.01 -259.65,-203.654 -483.17,-223.22 l 203.38,-0.496 h 211.03 c 53.11,18.433 145.37,73.506 187.2,116.826 l 118.5,0.34 c -32.79,-42.11 -80.27,-82.34 -140.66,-117.166 h 271.88 c 94.32,105.326 102.52,250.966 62.47,334.686 -52.72,110.19 -188.44,185.99 -324.82,201.7 -128.66,18.24 -261.67,24.33 -391.37,27.66 -155.15,4 -310.58,2.95 -465.75,0.45 -69.88,-1.11 -139.77,-2.58 -209.65,-4.18 -141.69,-3.36 -281.13,-3.11 -422.86,-2.11 z M 198.176,115.289 h -79.567 c -6.949,-0.148 -12.832,-1.437 -17.539,-3.988 -4.7809,-2.5 -7.1403,-7.289 -7.1403,-14.3518 0,-5.4297 2.0117,-9.3008 6.0351,-11.6211 4.0702,-2.3086 8.8082,-3.4492 14.1992,-3.4492 l 42.633,0.1914 c 1.555,-0.1211 3.187,-0.1914 4.937,-0.1914 1.707,0 3.375,-0.0703 5.082,-0.1875 5.012,-0.2617 9.914,-1.0312 14.731,-2.2422 4.824,-1.2187 9.113,-3.4101 12.793,-6.6484 3.379,-2.8399 5.965,-6.2617 7.672,-10.2422 1.703,-3.9883 2.765,-8.0898 3.187,-12.3398 0.149,-1.2774 0.227,-2.5391 0.344,-3.7579 0.074,-1.25 0.113,-2.5 0.113,-3.789 -0.308,-16.0625 -5.203,-27 -14.734,-32.73049 C 181.359,4.21094 168.453,1.37109 152.129,1.37109 H 66.3711 V 26.0703 h 80.6329 c 7.098,-0.1015 13.25,0.918 18.449,3.0781 5.203,2.211 7.285,7.1797 6.262,14.8829 -0.684,6.039 -3.149,9.7968 -7.442,11.1992 -4.289,1.4101 -9.3,2.1992 -15.148,2.3203 l -37.957,0.1797 c -15.7578,-0.1016 -28.2032,2.7383 -37.3946,8.5898 -9.1836,5.8789 -13.664,16.4688 -13.5468,31.7813 0.3007,16.0894 5.2343,27.0584 14.8047,32.9104 9.6015,5.867 22.582,8.797 38.9487,8.797 L 198.176,140 Z m 88.679,0.371 h -49.273 v 24.149 h 132.18 V 115.66 H 320.109 V 1.37109 H 286.855 Z M 408.98,140 h 79.297 c 1.59,-0.16 3.11,-0.191 4.594,-0.191 1.481,0 3.031,-0.071 4.594,-0.188 5.808,-0.262 11.578,-1.101 17.16,-2.543 5.574,-1.406 10.551,-4.019 14.805,-7.898 3.867,-3.34 6.715,-7.289 8.652,-11.77 1.938,-4.512 3.109,-9.148 3.531,-13.93 0,-0.871 0.039,-1.781 0.078,-2.691 0.071,-0.8788 0.11,-1.789 0.11,-2.6874 0.152,-9.6524 -2.313,-18 -7.367,-25.0235 -5.043,-7 -12.868,-11.6562 -23.571,-13.9765 L 549.055,1.37109 H 512.797 L 479.125,55.8008 H 441.168 V 1.37109 H 408.98 Z m 71.625,-24.711 H 441.168 V 80.3203 h 39.437 c 0.309,-0.1094 0.571,-0.1797 0.875,-0.1797 0.266,0 0.532,0 0.836,0 6.836,0 13.059,0.9375 18.68,2.8008 5.617,1.8594 8.313,6.7969 8.199,14.7695 0,8.2381 -2.961,13.1681 -8.847,14.8791 -5.922,1.68 -12.485,2.512 -19.743,2.512 z M 636.48,140 h 34.125 L 735.824,1.37109 H 700.023 L 685.941,34.3906 H 619.395 L 605.766,1.37109 h -33.895 z m 15.75,-27.641 -22.394,-53.2574 h 45.668 z m 247.321,2.93 h -79.567 c -6.949,-0.148 -12.832,-1.437 -17.539,-3.988 -4.785,-2.5 -7.132,-7.289 -7.132,-14.3518 0,-5.4297 2.007,-9.3008 6.035,-11.6211 4.058,-2.3086 8.804,-3.4492 14.195,-3.4492 l 42.633,0.1914 c 1.554,-0.1211 3.187,-0.1914 4.89,-0.1914 1.75,0 3.422,-0.0703 5.129,-0.1875 5.012,-0.2617 9.907,-1.0312 14.727,-2.2422 4.82,-1.2187 9.074,-3.4101 12.797,-6.6484 3.379,-2.8399 5.922,-6.2617 7.664,-10.2422 1.711,-3.9883 2.773,-8.0898 3.191,-12.3398 0.156,-1.2774 0.227,-2.5391 0.301,-3.7579 0.117,-1.25 0.156,-2.5 0.156,-3.789 -0.301,-16.0625 -5.199,-27 -14.73,-32.73049 C 882.734,4.21094 869.824,1.37109 853.508,1.37109 H 767.75 V 26.0703 h 80.629 c 7.101,-0.1015 13.246,0.918 18.453,3.0781 5.195,2.211 7.285,7.1797 6.266,14.8829 -0.688,6.039 -3.196,9.7968 -7.442,11.1992 -4.293,1.4101 -9.308,2.1992 -15.148,2.3203 l -37.965,0.1797 c -15.789,-0.1016 -28.207,2.7383 -37.391,8.5898 -9.191,5.8789 -13.668,16.4688 -13.554,31.7813 0.308,16.0894 5.238,27.0584 14.804,32.9104 9.606,5.867 22.586,8.797 38.95,8.797 L 899.551,140 Z m 184.639,0 h -79.56 c -6.989,-0.148 -12.833,-1.437 -17.579,-3.988 -4.785,-2.5 -7.133,-7.289 -7.133,-14.3518 0,-5.4297 2.012,-9.3008 6.035,-11.6211 4.059,-2.3086 8.809,-3.4492 14.237,-3.4492 l 42.63,0.1914 c 1.52,-0.1211 3.19,-0.1914 4.9,-0.1914 1.7,0 3.37,-0.0703 5.12,-0.1875 4.97,-0.2617 9.87,-1.0312 14.69,-2.2422 4.82,-1.2187 9.12,-3.4101 12.79,-6.6484 3.38,-2.8399 5.96,-6.2617 7.67,-10.2422 1.71,-3.9883 2.77,-8.0898 3.19,-12.3398 0.15,-1.2774 0.27,-2.5391 0.34,-3.7579 0.08,-1.25 0.12,-2.5 0.12,-3.789 -0.31,-16.0625 -5.2,-27 -14.73,-32.73049 -9.53,-5.73047 -22.44,-8.57032 -38.8,-8.57032 H 952.395 V 26.0703 h 80.585 c 7.1,-0.1015 13.26,0.918 18.46,3.0781 5.2,2.211 7.29,7.1797 6.29,14.8829 -0.71,6.039 -3.18,9.7968 -7.47,11.1992 -4.25,1.4101 -9.3,2.1992 -15.11,2.3203 l -37.998,0.1797 c -15.754,-0.1016 -28.207,2.7383 -37.39,8.5898 -9.192,5.8789 -13.668,16.4688 -13.555,31.7813 0.301,16.0894 5.238,27.0584 14.805,32.9104 9.605,5.867 22.586,8.797 38.949,8.797 L 1084.19,140 Z m 118.29,0.57 c -11.84,-0.121 -20.61,-3 -26.45,-8.578 -5.81,-5.621 -9.12,-13.5505 -9.8,-23.8396 l 89.1,0.1797 V 59.4805 h -89.32 c 0,-4.8907 0.64,-9.6016 1.82,-14.0821 1.21,-4.5195 3.68,-8.6484 7.36,-12.3671 3.27,-3.461 7.14,-5.6329 11.62,-6.461 4.47,-0.8398 9.03,-1.25 13.74,-1.25 0.3,0 0.61,0 0.95,0 0.34,0 0.68,0 0.98,0 l 52.85,0.1914 V 1.37109 h -54.37 c -8.69,0 -17,0.71875 -25.01,2.11719 -8.05,1.40235 -15.64,4.71094 -22.74,9.83202 -8.5,6.3086 -14.5,14.0078 -17.88,23.0899 -3.45,9.0703 -5.28,18.3711 -5.58,27.8984 -0.12,2.0508 -0.19,4.0625 -0.08,5.9922 0.08,1.9375 0.15,3.8398 0.35,5.7695 1.51,21.9102 8.12,37.9997 19.7,48.2887 11.54,10.289 28.96,15.45 52.12,15.45 L 1255.33,140 V 115.859 Z M 1307.1,140 h 40.78 L 1410.51,40.3516 1409.03,140 h 32.84 V 1.37109 H 1404.6 L 1338.69,106.211 1340.17,1.37109 h -33.07 z m 179.11,-74.3281 h 71.63 V 41.5313 h -71.63 z M 1716.86,140 V 56.9688 c 0,-11.7305 2.24,-20.4493 6.84,-26.2579 4.51,-5.8125 13.78,-8.6914 27.67,-8.6914 13.93,0 23.16,2.8789 27.63,8.6914 4.45,5.8086 6.72,14.5 6.72,26.0782 V 140 h 32.2 V 56.1797 c 0,-1.668 0,-3.3399 0,-5.0078 0,-1.6719 -0.08,-3.2617 -0.23,-4.8203 -0.16,-4.8907 -0.84,-9.6797 -2.05,-14.3907 -1.18,-4.6992 -3.42,-9.1093 -6.68,-13.2109 C 1804.4,13.1016 1798.55,8.89063 1791.38,6.17969 1784.17,3.48828 1776.76,1.75 1769.06,0.988281 1766.1,0.609375 1763.14,0.339844 1760.14,0.191406 1757.14,0.078125 1754.25,0 1751.37,0 c -2.66,0 -5.47,0.078125 -8.43,0.191406 -2.89,0.148438 -5.84,0.417969 -8.84,0.796875 C 1726.31,1.62891 1718.76,3.30078 1711.51,6 c -7.25,2.69141 -13.21,6.9414 -17.88,12.75 -3.26,4.1016 -5.5,8.5117 -6.64,13.2109 -1.14,4.711 -1.75,9.5 -1.94,14.3907 -0.11,1.5586 -0.19,3.1484 -0.19,4.8203 0,1.6679 0,3.2969 0,4.8164 V 140 Z m 155.8,0 h 40.77 L 1976.06,40.3516 1974.58,140 h 32.84 V 1.37109 h -37.28 l -65.9,104.83991 1.48,-104.83991 h -33.06 z m 189.54,0 h 70.15 c 23.31,-0.16 40.74,-5.352 52.24,-15.641 11.5,-10.289 18.03,-26.3785 19.62,-48.2887 0.12,-1.9297 0.27,-3.832 0.31,-5.7695 0.07,-1.9297 0.04,-3.9414 -0.08,-5.9922 -0.3,-9.5273 -2.16,-18.8281 -5.58,-27.8984 -3.42,-9.0821 -9.38,-16.7813 -17.92,-23.0899 -6.95,-5.12108 -14.46,-8.42967 -22.47,-9.83202 -8.05,-1.39844 -16.48,-2.11719 -25.29,-2.11719 h -70.98 z m 69.5,-24.141 h -37.31 V 25.5117 h 37.31 c 0.27,-0.1601 0.61,-0.1914 0.96,-0.1914 0.37,0 0.68,0 0.94,0 4.71,0 9.27,0.4102 13.78,1.25 4.49,0.8281 8.43,3 11.8,6.461 3.46,3.5976 5.85,7.6601 7.18,12.1796 1.34,4.4805 2.2,9.0782 2.62,13.711 0.2,1.8984 0.27,3.8281 0.27,5.7695 0,1.9297 0,3.8594 0,5.7969 0,1.9414 0,3.9531 0,6.0703 0,2.1328 -0.15,4.2227 -0.46,6.2695 -0.26,4.5117 -1.09,8.961 -2.43,13.3203 -1.33,4.4106 -3.72,8.2426 -7.18,11.5816 -3.37,3.489 -7.31,5.7 -11.8,6.571 -4.51,0.91 -9.07,1.359 -13.78,1.359 -0.26,0 -0.57,0 -0.94,0 -0.35,0 -0.69,0 -0.96,0 z M 2376.82,1.37109 2310.31,140 h 36.26 L 2392.65,36.7109 2439.76,140 h 34.28 L 2410.11,1.37109 Z M 2568.91,115.859 c -11.81,-0.121 -20.61,-3 -26.42,-8.578 -5.85,-5.621 -9.12,-13.5505 -9.84,-23.8396 l 89.14,0.1797 V 59.4805 h -89.32 c 0,-4.8907 0.6,-9.6016 1.77,-14.0821 1.22,-4.5195 3.69,-8.6484 7.38,-12.3671 3.3,-3.461 7.13,-5.6329 11.61,-6.461 4.52,-0.8398 9.07,-1.25 13.78,-1.25 0.27,0 0.57,0 0.95,0 0.34,0 0.68,0 0.95,0 l 52.88,0.1914 V 1.37109 h -54.36 c -8.69,0 -17.04,0.71875 -25.06,2.11719 -8.04,1.40235 -15.64,4.71094 -22.7,9.83202 -8.5,6.3086 -14.5,14.0078 -17.92,23.0899 -3.41,9.0703 -5.27,18.3711 -5.58,27.8984 -0.11,2.0508 -0.15,4.0625 -0.07,5.9922 0.07,1.9375 0.18,3.8398 0.34,5.7695 1.55,21.9102 8.13,37.9997 19.7,48.2887 11.58,10.289 28.96,15.45 52.16,15.45 L 2621.79,140 V 115.859 Z M 2673.57,140 h 79.3 c 1.59,-0.16 3.11,-0.191 4.6,-0.191 1.47,0 3.02,-0.071 4.59,-0.188 5.81,-0.262 11.58,-1.101 17.15,-2.543 5.58,-1.406 10.56,-4.019 14.81,-7.898 3.87,-3.34 6.72,-7.289 8.65,-11.77 1.94,-4.512 3.12,-9.148 3.54,-13.93 0,-0.871 0.04,-1.781 0.07,-2.691 0.07,-0.8788 0.11,-1.789 0.11,-2.6874 0.12,-9.6524 -2.31,-18 -7.36,-25.0235 -5.05,-7 -12.87,-11.6562 -23.58,-13.9765 l 38.2,-57.73051 h -36.26 l -33.67,54.42971 h -37.96 V 1.37109 h -32.19 z m 71.63,-24.711 h -39.44 V 80.3203 h 39.44 c 0.3,-0.1094 0.57,-0.1797 0.88,-0.1797 0.25,0 0.53,0 0.83,0 6.84,0 13.06,0.9375 18.67,2.8008 5.63,1.8594 8.32,6.7969 8.2,14.7695 0,8.2381 -2.95,13.1681 -8.84,14.8791 -5.92,1.68 -12.48,2.512 -19.74,2.512 z M 2857.11,140 h 32.19 V 73.3789 L 2949.7,140 h 38.57 l -61.42,-67.7617 62.06,-70.86721 h -41.15 L 2889.3,70.3008 V 1.37109 h -32.19 z m 229.86,-24.141 c -11.81,-0.121 -20.62,-3 -26.46,-8.578 -5.81,-5.621 -9.07,-13.5505 -9.79,-23.8396 l 89.13,0.1797 V 59.4805 h -89.37 c 0,-4.8907 0.66,-9.6016 1.83,-14.0821 1.22,-4.5195 3.68,-8.6484 7.36,-12.3671 3.26,-3.461 7.14,-5.6329 11.62,-6.461 4.48,-0.8398 9.08,-1.25 13.74,-1.25 0.31,0 0.61,0 0.99,0 0.34,0 0.65,0 0.95,0 l 52.88,0.1914 V 1.37109 h -54.4 c -8.66,0 -17.01,0.71875 -25.02,2.11719 -8.04,1.40235 -15.64,4.71094 -22.7,9.83202 -8.5,6.3086 -14.5,14.0078 -17.92,23.0899 -3.41,9.0703 -5.27,18.3711 -5.58,27.8984 -0.11,2.0508 -0.15,4.0625 -0.07,5.9922 0.07,1.9375 0.15,3.8398 0.34,5.7695 1.56,21.9102 8.12,37.9997 19.7,48.2887 11.59,10.289 28.97,15.45 52.16,15.45 L 3139.85,140 V 115.859 Z M 3223.81,140 V 83.8203 h 59.08 V 140 h 32.19 V 1.37109 h -32.19 V 59.3008 h -59.08 V 1.37109 h -32.18 V 140 Z m 146.47,0 h 79.3 c 1.6,-0.16 3.11,-0.191 4.62,-0.191 1.45,0 3.01,-0.071 4.56,-0.188 5.84,-0.262 11.58,-1.101 17.16,-2.543 5.62,-1.406 10.56,-4.019 14.85,-7.898 3.83,-3.34 6.68,-7.289 8.61,-11.77 1.93,-4.512 3.12,-9.148 3.54,-13.93 0,-0.871 0.02,-1.781 0.06,-2.691 0.08,-0.8788 0.16,-1.789 0.16,-2.6874 0.12,-9.6524 -2.31,-18 -7.4,-25.0235 -5.01,-7 -12.87,-11.6562 -23.54,-13.9765 l 38.19,-57.73051 h -36.29 l -33.64,54.42971 h -37.99 V 1.37109 h -32.19 z m 71.63,-24.711 h -39.44 V 80.3203 h 39.44 c 0.3,-0.1094 0.6,-0.1797 0.87,-0.1797 0.26,0 0.57,0 0.88,0 6.83,0 13.02,0.9375 18.63,2.8008 5.63,1.8594 8.35,6.7969 8.2,14.7695 0,8.2381 -2.96,13.1681 -8.84,14.8791 -5.88,1.68 -12.49,2.512 -19.74,2.512 z m 241.4,0 h -79.57 c -6.95,-0.148 -12.84,-1.437 -17.58,-3.988 -4.78,-2.5 -7.13,-7.289 -7.13,-14.3518 0,-5.4297 2.01,-9.3008 6.03,-11.6211 4.1,-2.3086 8.8,-3.4492 14.24,-3.4492 l 42.63,0.1914 c 1.55,-0.1211 3.18,-0.1914 4.89,-0.1914 1.71,0 3.38,-0.0703 5.13,-0.1875 4.97,-0.2617 9.87,-1.0312 14.69,-2.2422 4.82,-1.2187 9.11,-3.4101 12.79,-6.6484 3.42,-2.8399 5.97,-6.2617 7.67,-10.2422 1.74,-3.9883 2.77,-8.0898 3.19,-12.3398 0.19,-1.2774 0.26,-2.5391 0.34,-3.7579 0.08,-1.25 0.12,-2.5 0.12,-3.789 -0.27,-16.0625 -5.21,-27 -14.7,-32.73049 -9.56,-5.73047 -22.47,-8.57032 -38.83,-8.57032 H 3551.5 V 26.0703 h 80.6 c 7.09,-0.1015 13.25,0.918 18.44,3.0781 5.21,2.211 7.3,7.1797 6.31,14.8829 -0.72,6.039 -3.19,9.7968 -7.48,11.1992 -4.26,1.4101 -9.31,2.1992 -15.11,2.3203 l -38,0.1797 c -15.76,-0.1016 -28.21,2.7383 -37.4,8.5898 -9.18,5.8789 -13.66,16.4688 -13.5,31.7813 0.26,16.0894 5.23,27.0584 14.76,32.9104 9.6,5.867 22.63,8.797 38.95,8.797 l 84.24,0.191 z m 88.64,0.371 h -49.24 v 24.149 h 132.18 V 115.66 H 3805.2 V 1.37109 h -33.25 z m 185.24,0.199 c -11.79,-0.121 -20.6,-3 -26.45,-8.578 -5.81,-5.621 -9.07,-13.5505 -9.8,-23.8396 l 89.13,0.1797 V 59.4805 h -89.35 c 0,-4.8907 0.64,-9.6016 1.81,-14.0821 1.23,-4.5195 3.69,-8.6484 7.37,-12.3671 3.27,-3.461 7.14,-5.6329 11.62,-6.461 4.48,-0.8398 9.07,-1.25 13.74,-1.25 0.3,0 0.61,0 0.99,0 0.34,0 0.68,0 0.94,0 l 52.88,0.1914 V 1.37109 h -54.39 c -8.65,0 -17,0.71875 -25.02,2.11719 -8.05,1.40235 -15.64,4.71094 -22.7,9.83202 -8.5,6.3086 -14.5,14.0078 -17.92,23.0899 -3.41,9.0703 -5.27,18.3711 -5.58,27.8984 -0.11,2.0508 -0.15,4.0625 -0.07,5.9922 0.07,1.9375 0.15,3.8398 0.34,5.7695 1.55,21.9102 8.12,37.9997 19.7,48.2887 11.58,10.289 28.96,15.45 52.16,15.45 l 53.48,0.191 v -24.141 z m 167.8,0.379 c -15.53,-0.117 -25.55,-4.75 -30.07,-13.898 -4.59,-9.1486 -7.06,-19.7384 -7.47,-31.8517 0,-2.0391 0,-4.168 0,-6.2969 0,-2.0898 0.04,-4.25 0.22,-6.4609 0.42,-4.5117 1.33,-8.9102 2.77,-13.211 1.4,-4.3203 3.76,-8.1484 7.03,-11.4882 3.41,-3.461 7.32,-5.6329 11.83,-6.461 4.48,-0.8398 9.05,-1.25 13.75,-1.25 0.3,0 0.57,0 0.95,0 0.34,0 0.68,0 0.99,0 l 52.84,0.1914 V 1.37109 h -54.36 c -8.7,0 -17.01,0.71875 -25.02,2.11719 -8.04,1.40235 -15.64,4.71094 -22.73,9.83202 -8.51,6.3086 -14.5,14.0078 -17.88,23.0899 -3.46,9.0703 -5.33,18.3711 -5.59,27.8984 -0.15,2.0508 -0.19,4.0625 -0.12,5.9922 0.12,1.9375 0.2,3.8398 0.35,5.7695 1.56,21.9102 8.16,37.9997 19.7,48.2887 11.58,10.289 28.97,15.45 52.16,15.45 L 4177.83,140 V 116.238 Z M 4257.32,140 V 83.8203 h 59.07 V 140 h 32.19 V 1.37109 h -32.19 V 59.3008 h -59.07 V 1.37109 h -32.19 V 140 Z m 146.45,0 h 40.78 L 4507.22,40.3516 4505.71,140 h 32.87 V 1.37109 h -37.32 l -65.9,104.83991 1.52,-104.83991 h -33.11 z M 4627.21,1.37109 h -33.7 V 140 h 33.7 z M 4682.6,140 h 32.19 V 73.3789 L 4775.15,140 h 38.58 L 4752.3,72.2383 4814.41,1.37109 h -41.19 L 4714.79,70.3008 V 1.37109 H 4682.6 Z M 1485.41,1521.45 c 19.31,-1.68 98.14,-7.99 193.17,-12.83 l 4.18,7.65 c -72.06,1.8 -139.56,5.18 -197.35,5.18 z m 280.79,-14.88 169.63,-11.34 9.5,17.54 c -57.67,1.88 -117.68,0.09 -174.84,1.7 z m 258.1,-16 c 61.04,-3.25 117.02,-6.33 162.73,-9.08 l 12.23,22.53 -164.54,5.73 z m 250.59,-14.89 c 10.89,-0.85 19.18,-1.61 24.51,-2.24 37.29,-3.96 76.48,-7.39 116.5,-10.88 l 27.37,31.96 c -44.2,2.3 -90.13,4.15 -137.4,5.76 l -17.28,0.6 z m 225.57,-20.66 c 53.21,-5.02 106.49,-10.8 157.46,-18.65 l 32.93,36.87 c -49.44,6.77 -103.42,11.93 -161.05,16 z m 235.7,-32.98 c 56.13,-12.18 107.23,-28.17 149.35,-50.01 l 44.99,39.33 c -40.84,18.5 -89.75,33.81 -146.98,46.01 l -13.35,2.76 z m 217.43,-98.96 c 62.97,-43.84 63.33,-95.21 23.23,-150.33 l 102.76,0.35 c 21.87,78.42 0.3,150.77 -74.91,194.66 l -51.08,-44.68" />
    </g>
  </g>
</svg>
