<svg xmlns="http://www.w3.org/2000/svg" xmlns:xlink="http://www.w3.org/1999/xlink" version="1.1" data-diagram-type="ACTIVITY" style="width:535px;height:386px;background:#FFFFFF;" width="535px" height="386px" viewBox="0 0 535 386" zoomAndPan="magnify" preserveAspectRatio="none" contentStyleType="text/css"><?plantuml 1.2026.8?><defs/><g font-family="sans-serif" lengthAdjust="spacing"><ellipse cx="312.164" cy="25" rx="10" ry="10" fill="#222" style="stroke:#222;stroke-width:1;"/><rect x="216.256" y="55" width="191.814" height="33.969" fill="#F1F1F1" style="stroke:#181818;stroke-width:0.5;" rx="12.5" ry="12.5"/><text x="226.256" y="76.139" fill="#000" font-size="12" textLength="171.814">Telemetriedaten empfangen</text><polygon points="261.205,108.969,363.122,108.969,375.122,120.969,363.122,132.969,261.205,132.969,249.205,120.969,261.205,108.969" fill="#F1F1F1" style="stroke:#181818;stroke-width:0.5;stroke-linejoin:miter;stroke-miterlimit:10;"/><text x="261.205" y="124.777" fill="#000" font-size="11" textLength="101.917">Gerät ist bekannt?</text><text x="239.409" y="118.375" fill="#000" font-size="11" textLength="9.797">ja</text><text x="375.122" y="118.375" fill="#000" font-size="11" textLength="23.767">nein</text><rect x="105.689" y="142.969" width="146.984" height="33.969" fill="#F1F1F1" style="stroke:#181818;stroke-width:0.5;" rx="12.5" ry="12.5"/><text x="115.689" y="164.107" fill="#000" font-size="12" textLength="126.984">Messwerte speichern</text><polygon points="105.305,196.938,253.058,196.938,265.058,208.938,253.058,220.938,105.305,220.938,93.305,208.938,105.305,196.938" fill="#F1F1F1" style="stroke:#181818;stroke-width:0.5;stroke-linejoin:miter;stroke-miterlimit:10;"/><text x="105.305" y="212.746" fill="#000" font-size="11" textLength="147.753">Batteriespannung kritisch?</text><text x="83.508" y="206.343" fill="#000" font-size="11" textLength="9.797">ja</text><text x="265.058" y="206.343" fill="#000" font-size="11" textLength="23.767">nein</text><rect x="16" y="230.938" width="134.609" height="33.969" fill="#F1F1F1" style="stroke:#181818;stroke-width:0.5;" rx="12.5" ry="12.5"/><text x="26" y="252.076" fill="#000" font-size="12" textLength="114.609">Warnung erzeugen</text><rect x="205.269" y="230.938" width="139.578" height="33.969" fill="#F1F1F1" style="stroke:#181818;stroke-width:0.5;" rx="12.5" ry="12.5"/><text x="215.269" y="252.076" fill="#000" font-size="12" textLength="119.578">Status aktualisieren</text><polygon points="179.181,270.906,191.181,282.906,179.181,294.906,167.181,282.906,179.181,270.906" fill="#F1F1F1" style="stroke:#181818;stroke-width:0.5;stroke-linejoin:miter;stroke-miterlimit:10;"/><rect x="374.847" y="142.969" width="140.598" height="33.969" fill="#F1F1F1" style="stroke:#181818;stroke-width:0.5;" rx="12.5" ry="12.5"/><text x="384.847" y="164.107" fill="#000" font-size="12" textLength="120.598">Datensatz ablehnen</text><polygon points="312.164,300.906,324.164,312.906,312.164,324.906,300.164,312.906,312.164,300.906" fill="#F1F1F1" style="stroke:#181818;stroke-width:0.5;stroke-linejoin:miter;stroke-miterlimit:10;"/><ellipse cx="312.164" cy="355.906" rx="11" ry="11" fill="none" style="stroke:#222;stroke-width:1;"/><ellipse cx="312.164" cy="355.906" rx="6" ry="6" fill="#222" style="stroke:#222;stroke-width:1;"/><line x1="312.164" y1="35" x2="312.164" y2="55" style="stroke:#181818;stroke-width:1;"/><polygon points="308.164,45,312.164,55,316.164,45,312.164,49" fill="#181818" style="stroke:#181818;stroke-width:1;stroke-linejoin:miter;stroke-miterlimit:10;"/><line x1="93.305" y1="208.938" x2="83.305" y2="208.938" style="stroke:#181818;stroke-width:1;"/><line x1="83.305" y1="208.938" x2="83.305" y2="230.938" style="stroke:#181818;stroke-width:1;"/><polygon points="79.305,220.938,83.305,230.938,87.305,220.938,83.305,224.938" fill="#181818" style="stroke:#181818;stroke-width:1;stroke-linejoin:miter;stroke-miterlimit:10;"/><line x1="265.058" y1="208.938" x2="275.058" y2="208.938" style="stroke:#181818;stroke-width:1;"/><line x1="275.058" y1="208.938" x2="275.058" y2="230.938" style="stroke:#181818;stroke-width:1;"/><polygon points="271.058,220.938,275.058,230.938,279.058,220.938,275.058,224.938" fill="#181818" style="stroke:#181818;stroke-width:1;stroke-linejoin:miter;stroke-miterlimit:10;"/><line x1="83.305" y1="264.906" x2="83.305" y2="282.906" style="stroke:#181818;stroke-width:1;"/><line x1="83.305" y1="282.906" x2="167.181" y2="282.906" style="stroke:#181818;stroke-width:1;"/><polygon points="157.181,278.906,167.181,282.906,157.181,286.906,161.181,282.906" fill="#181818" style="stroke:#181818;stroke-width:1;stroke-linejoin:miter;stroke-miterlimit:10;"/><line x1="275.058" y1="264.906" x2="275.058" y2="282.906" style="stroke:#181818;stroke-width:1;"/><line x1="275.058" y1="282.906" x2="191.181" y2="282.906" style="stroke:#181818;stroke-width:1;"/><polygon points="201.181,278.906,191.181,282.906,201.181,286.906,197.181,282.906" fill="#181818" style="stroke:#181818;stroke-width:1;stroke-linejoin:miter;stroke-miterlimit:10;"/><line x1="179.181" y1="176.938" x2="179.181" y2="196.938" style="stroke:#181818;stroke-width:1;"/><polygon points="175.181,186.938,179.181,196.938,183.181,186.938,179.181,190.938" fill="#181818" style="stroke:#181818;stroke-width:1;stroke-linejoin:miter;stroke-miterlimit:10;"/><line x1="249.205" y1="120.969" x2="179.181" y2="120.969" style="stroke:#181818;stroke-width:1;"/><line x1="179.181" y1="120.969" x2="179.181" y2="142.969" style="stroke:#181818;stroke-width:1;"/><polygon points="175.181,132.969,179.181,142.969,183.181,132.969,179.181,136.969" fill="#181818" style="stroke:#181818;stroke-width:1;stroke-linejoin:miter;stroke-miterlimit:10;"/><line x1="375.122" y1="120.969" x2="445.146" y2="120.969" style="stroke:#181818;stroke-width:1;"/><line x1="445.146" y1="120.969" x2="445.146" y2="142.969" style="stroke:#181818;stroke-width:1;"/><polygon points="441.146,132.969,445.146,142.969,449.146,132.969,445.146,136.969" fill="#181818" style="stroke:#181818;stroke-width:1;stroke-linejoin:miter;stroke-miterlimit:10;"/><line x1="179.181" y1="294.906" x2="179.181" y2="312.906" style="stroke:#181818;stroke-width:1;"/><line x1="179.181" y1="312.906" x2="300.164" y2="312.906" style="stroke:#181818;stroke-width:1;"/><polygon points="290.164,308.906,300.164,312.906,290.164,316.906,294.164,312.906" fill="#181818" style="stroke:#181818;stroke-width:1;stroke-linejoin:miter;stroke-miterlimit:10;"/><line x1="445.146" y1="176.938" x2="445.146" y2="312.906" style="stroke:#181818;stroke-width:1;"/><line x1="445.146" y1="312.906" x2="324.164" y2="312.906" style="stroke:#181818;stroke-width:1;"/><polygon points="334.164,308.906,324.164,312.906,334.164,316.906,330.164,312.906" fill="#181818" style="stroke:#181818;stroke-width:1;stroke-linejoin:miter;stroke-miterlimit:10;"/><line x1="312.164" y1="88.969" x2="312.164" y2="108.969" style="stroke:#181818;stroke-width:1;"/><polygon points="308.164,98.969,312.164,108.969,316.164,98.969,312.164,102.969" fill="#181818" style="stroke:#181818;stroke-width:1;stroke-linejoin:miter;stroke-miterlimit:10;"/><line x1="312.164" y1="324.906" x2="312.164" y2="344.906" style="stroke:#181818;stroke-width:1;"/><polygon points="308.164,334.906,312.164,344.906,316.164,334.906,312.164,338.906" fill="#181818" style="stroke:#181818;stroke-width:1;stroke-linejoin:miter;stroke-miterlimit:10;"/><?plantuml-src POz1QiDG34Jt_nHQEbTm5uKIw2gh5hfMad6is56DDAQGy_GclLZyJGcbqL9wyz0aDLXA-uuH5p0CHoLSS9awzHFygHJhf7b5_7nJB2bx3EhEvusmNyZch9iYoxGxP7uX2Ca9TkWHDLrFrV2Y91P_JajwzfCCORGyz0-YLVQXiLA8A-RrZxh6c936OVu7VQDoJj61iuwMXhZZVhIkbF-fTbixfl8gkX_HU-L_sUJdL6u0?></g></svg>